<?xml version="1.0" encoding="UTF-8" standalone="no"?>
<svg
   xmlns:dc="http://purl.org/dc/elements/1.1/"
   xmlns:cc="http://creativecommons.org/ns#"
   xmlns:rdf="http://www.w3.org/1999/02/22-rdf-syntax-ns#"
   xmlns:svg="http://www.w3.org/2000/svg"
   xmlns="http://www.w3.org/2000/svg"
   viewBox="0 0 621.44 147.84"
   height="147.84"
   width="621.44"
   xml:space="preserve"
   id="svg2"
   version="1.1"><metadata
     id="metadata8"><rdf:RDF><cc:Work
         rdf:about=""><dc:format>image/svg+xml</dc:format><dc:type
           rdf:resource="http://purl.org/dc/dcmitype/StillImage" /></cc:Work></rdf:RDF></metadata><defs
     id="defs6"><clipPath
       id="clipPath18"
       clipPathUnits="userSpaceOnUse"><path
         style="clip-rule:evenodd"
         id="path16"
         d="M 0,0 H 1943 V 456.64606 H 0 Z" /></clipPath><clipPath
       id="clipPath38"
       clipPathUnits="userSpaceOnUse"><path
         style="clip-rule:evenodd"
         id="path36"
         d="m 33.046753,228.32303 h 54.076508 v 75.10626 H 33.046753 Z" /></clipPath><clipPath
       id="clipPath50"
       clipPathUnits="userSpaceOnUse"><path
         style="clip-rule:evenodd"
         id="path48"
         d="M 0,0 H 1943 V 456.64606 H 0 Z" /></clipPath></defs><g
     transform="matrix(0.31999998,0,0,0.31999998,0,7.6959999e-6)"
     id="g10"><g
       id="g12"><g
         clip-path="url(#clipPath18)"
         id="g14"><g
           transform="matrix(3.0042503,0,0,3.0042503,1.5021251,1.5021251)"
           id="g20"><path
             id="path22"
             style="fill:none;stroke:#000000;stroke-width:1;stroke-linecap:butt;stroke-linejoin:miter;stroke-miterlimit:10;stroke-dasharray:none;stroke-opacity:1"
             d="M 160,90 H 273.63" /><path
             id="path24"
             style="fill:#000000;fill-opacity:1;fill-rule:nonzero;stroke:none"
             d="m 278.88,90 -7,3.5 1.75,-3.5 -1.75,-3.5 z" /><path
             id="path26"
             style="fill:none;stroke:#000000;stroke-width:1;stroke-linecap:butt;stroke-linejoin:miter;stroke-miterlimit:10;stroke-dasharray:none;stroke-opacity:1"
             d="m 278.88,90 -7,3.5 1.75,-3.5 -1.75,-3.5 z" /><path
             id="path28"
             style="fill:#ffffff;fill-opacity:1;fill-rule:nonzero;stroke:none"
             d="M 40,30 H 160 V 150 H 40 Z" /><path
             id="path30"
             style="fill:none;stroke:#000000;stroke-width:1;stroke-linecap:butt;stroke-linejoin:miter;stroke-miterlimit:10;stroke-dasharray:none;stroke-opacity:1"
             d="M 40,30 H 160 V 150 H 40 Z" /></g></g></g><g
       id="g32"><g
         clip-path="url(#clipPath38)"
         id="g34"><g
           transform="matrix(0.10561817,0,0,-0.10561817,33.046753,301.66898)"
           id="g40"><path
             id="path42"
             style="fill:#000000;fill-opacity:1;fill-rule:nonzero;stroke:none"
             d="m 366,683 c 0.66666,0 24.66666,1.66669 72,5 47.33334,3.33331 71.66666,5.33331 73,6 8,0 12,-2.66669 12,-8 0,-4.66669 -24.33334,-105.33331 -73,-302 C 401.33334,187.33333 376.33334,87 375,83 c -1.33334,-4 -1.66666,-9 -1,-15 0,-28 9.33334,-42 28,-42 6,0.666666 12.66666,3.666666 20,9 14,13.333336 27.66666,45.333328 41,96 4,13.33333 7.33334,20.33333 10,21 1.33334,0.66667 4.66666,1 10,1 h 4 4 c 10,0 15,-2.66667 15,-8 0,-3.33333 -1,-8.66667 -3,-16 C 494.33334,95.666664 484.33334,68.666672 473,48 461.66666,27.333332 452.33334,14 445,8 437.66666,2 428.33334,-3.333333 417,-8 c -5.33334,-1.333333 -13.33334,-2 -24,-2 -22.66666,0 -41.66666,5 -57,15 -15.33334,10 -25.33334,20.333332 -30,31 l -6,15 c -0.66666,0.666668 -2,0.333332 -4,-1 -1.33334,-1.333332 -2.66666,-2.666668 -4,-4 C 252.66666,8.6666641 212.66667,-10 172,-10 135.33333,-10 103,3.3333321 75,30 47,56.666668 33,99 33,157 c 0,32 6.666664,64.66666 20,98 13.333336,33.33334 29.333328,62 48,86 31.33333,38 62.66667,64.33334 94,79 31.33333,14.66666 59.66667,22 85,22 37.33334,0 65.33334,-14 84,-42 3.33334,-4 5,-5.33334 5,-4 0.66666,2.66666 9.66666,39 27,109 17.33334,70 26.66666,107 28,111 0,8.66669 -2.33334,14 -7,16 -4.66666,2 -17.66666,3.66669 -39,5 h -21 c -4,4 -6,6.66669 -6,8 0,1.33331 0.66666,7.66669 2,19 3.33334,12.66669 7.66666,19 13,19 z M 352,326 c -15.33334,52.66666 -40.33334,79 -75,79 -23.33333,0 -45.66667,-10.33334 -67,-31 -21.33333,-20.66666 -38,-47.66666 -50,-81 -19.33333,-52.66667 -33,-107.33333 -41,-164 0,-2 0,-5.66666 0,-11 0,-5.33334 -0.33334,-9.33334 -1,-12 0,-30 6,-50.666664 18,-62 12,-11.333336 26.33333,-17.333334 43,-18 36,0 73,24 111,72 l 8,11 z" /></g></g></g><g
       id="g44"><g
         clip-path="url(#clipPath50)"
         id="g46"><g
           transform="matrix(3.0042503,0,0,3.0042503,1.5021251,1.5021251)"
           id="g52"><path
             id="path54"
             style="fill:none;stroke:#000000;stroke-width:1;stroke-linecap:butt;stroke-linejoin:miter;stroke-miterlimit:10;stroke-dasharray:none;stroke-opacity:1"
             d="m 400,90 h 60 53.63" /><path
             id="path56"
             style="fill:#000000;fill-opacity:1;fill-rule:nonzero;stroke:none"
             d="m 518.88,90 -7,3.5 1.75,-3.5 -1.75,-3.5 z" /><path
             id="path58"
             style="fill:none;stroke:#000000;stroke-width:1;stroke-linecap:butt;stroke-linejoin:miter;stroke-miterlimit:10;stroke-dasharray:none;stroke-opacity:1"
             d="m 518.88,90 -7,3.5 1.75,-3.5 -1.75,-3.5 z" /><path
             id="path60"
             style="fill:#ffffff;fill-opacity:1;fill-rule:nonzero;stroke:none"
             d="m 280,60 h 120 v 60 H 280 Z" /><path
             id="path62"
             style="fill:none;stroke:#000000;stroke-width:1;stroke-linecap:butt;stroke-linejoin:miter;stroke-miterlimit:10;stroke-dasharray:none;stroke-opacity:1"
             d="m 280,60 h 120 v 60 H 280 Z" /></g><g
           transform="scale(3.0042503)"
           id="g64"><text
             id="text68"
             style="font-variant:normal;font-weight:normal;font-size:12px;font-family:ArialMT;-inkscape-font-specification:ArialMT;writing-mode:lr-tb;fill:#000000;fill-opacity:1;fill-rule:nonzero;stroke:none"
             transform="translate(79.3125,19)"><tspan
               id="tspan66"
               y="0"
               x="0 8.6660156 15.339844 18.673828 25.347656 31.347656 38.021484">Dataset</tspan></text>
</g><g
           transform="matrix(0.10569589,0,0,-0.10569589,958.37372,302.83862)"
           id="g70"><path
             id="path72"
             style="fill:#000000;fill-opacity:1;fill-rule:nonzero;stroke:none"
             d="m 28,9 c 0,18.666668 5,36.666664 15,54 10,17.333336 20,26.333336 30,27 2.666664,0 6,-2 10,-6 4,-4 10.666664,-8.666664 20,-14 9.33334,-5.333336 22,-9.666668 38,-13 h 5 c 10.66667,0 21.33333,7.333336 32,22 10.66667,14.666664 25.33333,44 44,88 29.33333,74.66667 53.66666,142.66666 73,204 19.33334,61.33334 32.33334,108.66666 39,142 6.66666,33.33331 11.66666,61.66669 15,85 3.33334,23.33331 6.33334,41 9,53 2.66666,12 7,20.66669 13,26 17.33334,18.66669 37.66666,28 61,28 6.66666,0 11,-2 13,-6 2,-4 4.33334,-15 7,-33 0.66666,-3.33331 1,-5.66669 1,-7 14.66666,-80.66669 33.33334,-165.33331 56,-254 22.66669,-88.66669 42.33331,-154.66666 59,-198 l 6,-15 c 4.66669,-9.33333 9,-18.66667 13,-28 4,-9.33333 6.33331,-14 7,-14 1.33331,0 15,13 41,39 26,26 45.33331,45.66667 58,59 48,50.66666 104.66669,114 170,190 65.33331,76 119,138.66669 161,188 42,49.33331 63.6666,74.33331 65,75 2.6666,2.66669 6.3334,4 11,4 7.3334,0 11,-7.66669 11,-23 0,-4.66669 -1,-12 -3,-22 -2,-10 -5,-26.33331 -9,-49 -4,-22.66669 -8.3334,-46.33331 -13,-71 -30,-175.33334 -45,-307.33333 -45,-396 0,-30.66667 1,-53.666664 3,-69 2,-15.333336 4,-24.333332 6,-27 2,-2.666668 5,-4.666668 9,-6 3.3334,-0.666668 8.6666,0.666668 16,4 18,10 33.3334,15 46,15 10.6666,0 16,-3.666668 16,-11 0,-14.666668 -16.6666,-31.333332 -50,-50 -33.3334,-18.666668 -62.3334,-28.333334 -87,-29 -11.33331,0 -20.66669,2 -28,6 -7.33331,4 -13,8.666666 -17,14 -4,5.3333335 -7.33331,13.666666 -10,25 -2.66669,11.333334 -3.66669,21 -3,29 0.66669,8 0.33331,20.666664 -1,38 v 13 c 0,41.33334 3.66669,94.66666 11,160 7.33331,65.33334 14.66669,120.66666 22,166 l 11,67 c -0.66669,0 -16,-17.66666 -46,-53 C 909,400.66666 869.66669,355.33334 821,300 772.33331,244.66666 731.33331,199.33334 698,164 676,140 650,113.66667 620,85 590,56.333332 572.66669,40.333332 568,37 c -2.66669,-2 -6,-3 -10,-3 -5.33331,0 -9.33331,1 -12,3 -2.66669,2 -6.33331,7.666664 -11,17 -15.33331,24.666672 -28.33334,49 -39,73 -10.66666,24 -26,68 -46,132 -20,64 -40.33334,143.66666 -61,239 l -5,20 C 360.66666,417.33331 330.66666,319 294,223 257.33334,127 225.33333,57.666668 198,15 169.33333,-28.333336 142.33333,-50 117,-50 97,-50 78.333336,-45 61,-35 43.666664,-25 33.333332,-15.333334 30,-6 28.666666,-0.66666651 28,4.333333 28,9 Z" /><path
             id="path74"
             style="fill:none;stroke:#000000;stroke-width:1;stroke-linecap:butt;stroke-linejoin:miter;stroke-miterlimit:10;stroke-dasharray:none;stroke-opacity:0.07610001"
             d="m 28,9 c 0,18.666668 5,36.666664 15,54 10,17.333336 20,26.333336 30,27 2.666664,0 6,-2 10,-6 4,-4 10.666664,-8.666664 20,-14 9.33334,-5.333336 22,-9.666668 38,-13 h 5 c 10.66667,0 21.33333,7.333336 32,22 10.66667,14.666664 25.33333,44 44,88 29.33333,74.66667 53.66666,142.66666 73,204 19.33334,61.33334 32.33334,108.66666 39,142 6.66666,33.33331 11.66666,61.66669 15,85 3.33334,23.33331 6.33334,41 9,53 2.66666,12 7,20.66669 13,26 17.33334,18.66669 37.66666,28 61,28 6.66666,0 11,-2 13,-6 2,-4 4.33334,-15 7,-33 0.66666,-3.33331 1,-5.66669 1,-7 14.66666,-80.66669 33.33334,-165.33331 56,-254 22.66669,-88.66669 42.33331,-154.66666 59,-198 l 6,-15 c 4.66669,-9.33333 9,-18.66667 13,-28 4,-9.33333 6.33331,-14 7,-14 1.33331,0 15,13 41,39 26,26 45.33331,45.66667 58,59 48,50.66666 104.66669,114 170,190 65.33331,76 119,138.66669 161,188 42,49.33331 63.6666,74.33331 65,75 2.6666,2.66669 6.3334,4 11,4 7.3334,0 11,-7.66669 11,-23 0,-4.66669 -1,-12 -3,-22 -2,-10 -5,-26.33331 -9,-49 -4,-22.66669 -8.3334,-46.33331 -13,-71 -30,-175.33334 -45,-307.33333 -45,-396 0,-30.66667 1,-53.666664 3,-69 2,-15.333336 4,-24.333332 6,-27 2,-2.666668 5,-4.666668 9,-6 3.3334,-0.666668 8.6666,0.666668 16,4 18,10 33.3334,15 46,15 10.6666,0 16,-3.666668 16,-11 0,-14.666668 -16.6666,-31.333332 -50,-50 -33.3334,-18.666668 -62.3334,-28.333334 -87,-29 -11.33331,0 -20.66669,2 -28,6 -7.33331,4 -13,8.666666 -17,14 -4,5.3333335 -7.33331,13.666666 -10,25 -2.66669,11.333334 -3.66669,21 -3,29 0.66669,8 0.33331,20.666664 -1,38 v 13 c 0,41.33334 3.66669,94.66666 11,160 7.33331,65.33334 14.66669,120.66666 22,166 l 11,67 c -0.66669,0 -16,-17.66666 -46,-53 C 909,400.66666 869.66669,355.33334 821,300 772.33331,244.66666 731.33331,199.33334 698,164 676,140 650,113.66667 620,85 590,56.333332 572.66669,40.333332 568,37 c -2.66669,-2 -6,-3 -10,-3 -5.33331,0 -9.33331,1 -12,3 -2.66669,2 -6.33331,7.666664 -11,17 -15.33331,24.666672 -28.33334,49 -39,73 -10.66666,24 -26,68 -46,132 -20,64 -40.33334,143.66666 -61,239 l -5,20 C 360.66666,417.33331 330.66666,319 294,223 257.33334,127 225.33333,57.666668 198,15 169.33333,-28.333336 142.33333,-50 117,-50 97,-50 78.333336,-45 61,-35 43.666664,-25 33.333332,-15.333334 30,-6 28.666666,-0.66666651 28,4.333333 28,9 Z" /></g><g
           transform="scale(3.0042503)"
           id="g76"><text
             id="text80"
             style="font-variant:normal;font-weight:normal;font-size:12px;font-family:ArialMT;-inkscape-font-specification:ArialMT;writing-mode:lr-tb;fill:#000000;fill-opacity:1;fill-rule:nonzero;stroke:none"
             transform="translate(310.3125,35)"><tspan
               id="tspan78"
               y="0"
               x="0 8.6660156 15.339844 22.013672 28.6875 35.361328 45.357422 48.023438 54.023438 60.697266">Randomized</tspan></text>
<text
             id="text84"
             style="font-variant:normal;font-weight:normal;font-size:12px;font-family:ArialMT;-inkscape-font-specification:ArialMT;writing-mode:lr-tb;fill:#000000;fill-opacity:1;fill-rule:nonzero;stroke:none"
             transform="translate(313.3125,50)"><tspan
               id="tspan82"
               y="0"
               x="0 9.9960938 16.669922 22.669922 29.34375 36.017578 42.691406 45.357422 51.357422">Mechanism</tspan></text>
</g><g
           transform="matrix(3.0042503,0,0,3.0042503,1.5021251,1.5021251)"
           id="g86"><path
             id="path88"
             style="fill:#ffffff;fill-opacity:1;fill-rule:nonzero;stroke:none"
             d="m 520,50 h 80 v 80 h -80 z" /><path
             id="path90"
             style="fill:none;stroke:#000000;stroke-width:1;stroke-linecap:butt;stroke-linejoin:miter;stroke-miterlimit:10;stroke-dasharray:none;stroke-opacity:1"
             d="m 520,50 h 80 v 80 h -80 z" /></g><g
           transform="scale(3.0042503)"
           id="g92"><text
             id="text96"
             style="font-variant:normal;font-weight:normal;font-size:12px;font-family:ArialMT;-inkscape-font-specification:ArialMT;writing-mode:lr-tb;fill:#000000;fill-opacity:1;fill-rule:nonzero;stroke:none"
             transform="translate(541.98438,39)"><tspan
               id="tspan94"
               y="0"
               x="0 9.3339844 16.007812 19.341797 26.015625 32.689453">Output</tspan></text>
</g><g
           transform="matrix(0.0704584,0,0,-0.0704584,1625.3186,293.01746)"
           id="g98"><path
             id="path100"
             style="fill:#000000;fill-opacity:1;fill-rule:nonzero;stroke:none"
             d="m 28,9 c 0,18.666668 5,36.666664 15,54 10,17.333336 20,26.333336 30,27 2.666664,0 6,-2 10,-6 4,-4 10.666664,-8.666664 20,-14 9.33334,-5.333336 22,-9.666668 38,-13 h 5 c 10.66667,0 21.33333,7.333336 32,22 10.66667,14.666664 25.33333,44 44,88 29.33333,74.66667 53.66666,142.66666 73,204 19.33334,61.33334 32.33334,108.66666 39,142 6.66666,33.33331 11.66666,61.66669 15,85 3.33334,23.33331 6.33334,41 9,53 2.66666,12 7,20.66669 13,26 17.33334,18.66669 37.66666,28 61,28 6.66666,0 11,-2 13,-6 2,-4 4.33334,-15 7,-33 0.66666,-3.33331 1,-5.66669 1,-7 14.66666,-80.66669 33.33334,-165.33331 56,-254 22.66669,-88.66669 42.33331,-154.66666 59,-198 l 6,-15 c 4.66669,-9.33333 9,-18.66667 13,-28 4,-9.33333 6.33331,-14 7,-14 1.33331,0 15,13 41,39 26,26 45.33331,45.66667 58,59 48,50.66666 104.66669,114 170,190 65.33331,76 119,138.66669 161,188 42,49.33331 63.6666,74.33331 65,75 2.6666,2.66669 6.3334,4 11,4 7.3334,0 11,-7.66669 11,-23 0,-4.66669 -1,-12 -3,-22 -2,-10 -5,-26.33331 -9,-49 -4,-22.66669 -8.3334,-46.33331 -13,-71 -30,-175.33334 -45,-307.33333 -45,-396 0,-30.66667 1,-53.666664 3,-69 2,-15.333336 4,-24.333332 6,-27 2,-2.666668 5,-4.666668 9,-6 3.3334,-0.666668 8.6666,0.666668 16,4 18,10 33.3334,15 46,15 10.6666,0 16,-3.666668 16,-11 0,-14.666668 -16.6666,-31.333332 -50,-50 -33.3334,-18.666668 -62.3334,-28.333334 -87,-29 -11.33331,0 -20.66669,2 -28,6 -7.33331,4 -13,8.666666 -17,14 -4,5.3333335 -7.33331,13.666666 -10,25 -2.66669,11.333334 -3.66669,21 -3,29 0.66669,8 0.33331,20.666664 -1,38 v 13 c 0,41.33334 3.66669,94.66666 11,160 7.33331,65.33334 14.66669,120.66666 22,166 l 11,67 c -0.66669,0 -16,-17.66666 -46,-53 C 909,400.66666 869.66669,355.33334 821,300 772.33331,244.66666 731.33331,199.33334 698,164 676,140 650,113.66667 620,85 590,56.333332 572.66669,40.333332 568,37 c -2.66669,-2 -6,-3 -10,-3 -5.33331,0 -9.33331,1 -12,3 -2.66669,2 -6.33331,7.666664 -11,17 -15.33331,24.666672 -28.33334,49 -39,73 -10.66666,24 -26,68 -46,132 -20,64 -40.33334,143.66666 -61,239 l -5,20 C 360.66666,417.33331 330.66666,319 294,223 257.33334,127 225.33333,57.666668 198,15 169.33333,-28.333336 142.33333,-50 117,-50 97,-50 78.333336,-45 61,-35 43.666664,-25 33.333332,-15.333334 30,-6 28.666666,-0.66666651 28,4.333333 28,9 Z" /><path
             id="path102"
             style="fill:none;stroke:#000000;stroke-width:1;stroke-linecap:butt;stroke-linejoin:miter;stroke-miterlimit:10;stroke-dasharray:none;stroke-opacity:0.05069999"
             d="m 28,9 c 0,18.666668 5,36.666664 15,54 10,17.333336 20,26.333336 30,27 2.666664,0 6,-2 10,-6 4,-4 10.666664,-8.666664 20,-14 9.33334,-5.333336 22,-9.666668 38,-13 h 5 c 10.66667,0 21.33333,7.333336 32,22 10.66667,14.666664 25.33333,44 44,88 29.33333,74.66667 53.66666,142.66666 73,204 19.33334,61.33334 32.33334,108.66666 39,142 6.66666,33.33331 11.66666,61.66669 15,85 3.33334,23.33331 6.33334,41 9,53 2.66666,12 7,20.66669 13,26 17.33334,18.66669 37.66666,28 61,28 6.66666,0 11,-2 13,-6 2,-4 4.33334,-15 7,-33 0.66666,-3.33331 1,-5.66669 1,-7 14.66666,-80.66669 33.33334,-165.33331 56,-254 22.66669,-88.66669 42.33331,-154.66666 59,-198 l 6,-15 c 4.66669,-9.33333 9,-18.66667 13,-28 4,-9.33333 6.33331,-14 7,-14 1.33331,0 15,13 41,39 26,26 45.33331,45.66667 58,59 48,50.66666 104.66669,114 170,190 65.33331,76 119,138.66669 161,188 42,49.33331 63.6666,74.33331 65,75 2.6666,2.66669 6.3334,4 11,4 7.3334,0 11,-7.66669 11,-23 0,-4.66669 -1,-12 -3,-22 -2,-10 -5,-26.33331 -9,-49 -4,-22.66669 -8.3334,-46.33331 -13,-71 -30,-175.33334 -45,-307.33333 -45,-396 0,-30.66667 1,-53.666664 3,-69 2,-15.333336 4,-24.333332 6,-27 2,-2.666668 5,-4.666668 9,-6 3.3334,-0.666668 8.6666,0.666668 16,4 18,10 33.3334,15 46,15 10.6666,0 16,-3.666668 16,-11 0,-14.666668 -16.6666,-31.333332 -50,-50 -33.3334,-18.666668 -62.3334,-28.333334 -87,-29 -11.33331,0 -20.66669,2 -28,6 -7.33331,4 -13,8.666666 -17,14 -4,5.3333335 -7.33331,13.666666 -10,25 -2.66669,11.333334 -3.66669,21 -3,29 0.66669,8 0.33331,20.666664 -1,38 v 13 c 0,41.33334 3.66669,94.66666 11,160 7.33331,65.33334 14.66669,120.66666 22,166 l 11,67 c -0.66669,0 -16,-17.66666 -46,-53 C 909,400.66666 869.66669,355.33334 821,300 772.33331,244.66666 731.33331,199.33334 698,164 676,140 650,113.66667 620,85 590,56.333332 572.66669,40.333332 568,37 c -2.66669,-2 -6,-3 -10,-3 -5.33331,0 -9.33331,1 -12,3 -2.66669,2 -6.33331,7.666664 -11,17 -15.33331,24.666672 -28.33334,49 -39,73 -10.66666,24 -26,68 -46,132 -20,64 -40.33334,143.66666 -61,239 l -5,20 C 360.66666,417.33331 330.66666,319 294,223 257.33334,127 225.33333,57.666668 198,15 169.33333,-28.333336 142.33333,-50 117,-50 97,-50 78.333336,-45 61,-35 43.666664,-25 33.333332,-15.333334 30,-6 28.666666,-0.66666651 28,4.333333 28,9 Z" /></g><g
           transform="matrix(0.04981409,0,0,-0.04981409,1712.2644,303.58621)"
           id="g104"><path
             id="path106"
             style="fill:#000000;fill-opacity:1;fill-rule:nonzero;stroke:none"
             d="m 366,683 c 0.66666,0 24.66666,1.66669 72,5 47.33334,3.33331 71.66666,5.33331 73,6 8,0 12,-2.66669 12,-8 0,-4.66669 -24.33334,-105.33331 -73,-302 C 401.33334,187.33333 376.33334,87 375,83 c -1.33334,-4 -1.66666,-9 -1,-15 0,-28 9.33334,-42 28,-42 6,0.666666 12.66666,3.666666 20,9 14,13.333336 27.66666,45.333328 41,96 4,13.33333 7.33334,20.33333 10,21 1.33334,0.66667 4.66666,1 10,1 h 4 4 c 10,0 15,-2.66667 15,-8 0,-3.33333 -1,-8.66667 -3,-16 C 494.33334,95.666664 484.33334,68.666672 473,48 461.66666,27.333332 452.33334,14 445,8 437.66666,2 428.33334,-3.333333 417,-8 c -5.33334,-1.333333 -13.33334,-2 -24,-2 -22.66666,0 -41.66666,5 -57,15 -15.33334,10 -25.33334,20.333332 -30,31 l -6,15 c -0.66666,0.666668 -2,0.333332 -4,-1 -1.33334,-1.333332 -2.66666,-2.666668 -4,-4 C 252.66666,8.6666641 212.66667,-10 172,-10 135.33333,-10 103,3.3333321 75,30 47,56.666668 33,99 33,157 c 0,32 6.666664,64.66666 20,98 13.333336,33.33334 29.333328,62 48,86 31.33333,38 62.66667,64.33334 94,79 31.33333,14.66666 59.66667,22 85,22 37.33334,0 65.33334,-14 84,-42 3.33334,-4 5,-5.33334 5,-4 0.66666,2.66666 9.66666,39 27,109 17.33334,70 26.66666,107 28,111 0,8.66669 -2.33334,14 -7,16 -4.66666,2 -17.66666,3.66669 -39,5 h -21 c -4,4 -6,6.66669 -6,8 0,1.33331 0.66666,7.66669 2,19 3.33334,12.66669 7.66666,19 13,19 z M 352,326 c -15.33334,52.66666 -40.33334,79 -75,79 -23.33333,0 -45.66667,-10.33334 -67,-31 -21.33333,-20.66666 -38,-47.66666 -50,-81 -19.33333,-52.66667 -33,-107.33333 -41,-164 0,-2 0,-5.66666 0,-11 0,-5.33334 -0.33334,-9.33334 -1,-12 0,-30 6,-50.666664 18,-62 12,-11.333336 26.33333,-17.333334 43,-18 36,0 73,24 111,72 l 8,11 z" /><path
             id="path108"
             style="fill:none;stroke:#000000;stroke-width:1;stroke-linecap:butt;stroke-linejoin:miter;stroke-miterlimit:10;stroke-dasharray:none;stroke-opacity:0.03589998"
             d="m 366,683 c 0.66666,0 24.66666,1.66669 72,5 47.33334,3.33331 71.66666,5.33331 73,6 8,0 12,-2.66669 12,-8 0,-4.66669 -24.33334,-105.33331 -73,-302 C 401.33334,187.33333 376.33334,87 375,83 c -1.33334,-4 -1.66666,-9 -1,-15 0,-28 9.33334,-42 28,-42 6,0.666666 12.66666,3.666666 20,9 14,13.333336 27.66666,45.333328 41,96 4,13.33333 7.33334,20.33333 10,21 1.33334,0.66667 4.66666,1 10,1 h 4 4 c 10,0 15,-2.66667 15,-8 0,-3.33333 -1,-8.66667 -3,-16 C 494.33334,95.666664 484.33334,68.666672 473,48 461.66666,27.333332 452.33334,14 445,8 437.66666,2 428.33334,-3.333333 417,-8 c -5.33334,-1.333333 -13.33334,-2 -24,-2 -22.66666,0 -41.66666,5 -57,15 -15.33334,10 -25.33334,20.333332 -30,31 l -6,15 c -0.66666,0.666668 -2,0.333332 -4,-1 -1.33334,-1.333332 -2.66666,-2.666668 -4,-4 C 252.66666,8.6666641 212.66667,-10 172,-10 135.33333,-10 103,3.3333321 75,30 47,56.666668 33,99 33,157 c 0,32 6.666664,64.66666 20,98 13.333336,33.33334 29.333328,62 48,86 31.33333,38 62.66667,64.33334 94,79 31.33333,14.66666 59.66667,22 85,22 37.33334,0 65.33334,-14 84,-42 3.33334,-4 5,-5.33334 5,-4 0.66666,2.66666 9.66666,39 27,109 17.33334,70 26.66666,107 28,111 0,8.66669 -2.33334,14 -7,16 -4.66666,2 -17.66666,3.66669 -39,5 h -21 c -4,4 -6,6.66669 -6,8 0,1.33331 0.66666,7.66669 2,19 3.33334,12.66669 7.66666,19 13,19 z M 352,326 c -15.33334,52.66666 -40.33334,79 -75,79 -23.33333,0 -45.66667,-10.33334 -67,-31 -21.33333,-20.66666 -38,-47.66666 -50,-81 -19.33333,-52.66667 -33,-107.33333 -41,-164 0,-2 0,-5.66666 0,-11 0,-5.33334 -0.33334,-9.33334 -1,-12 0,-30 6,-50.666664 18,-62 12,-11.333336 26.33333,-17.333334 43,-18 36,0 73,24 111,72 l 8,11 z" /></g><g
           transform="matrix(3.0042503,0,0,3.0042503,1.5021251,1.5021251)"
           id="g110"><path
             id="path112"
             style="fill:#7ea6e0;fill-opacity:1;fill-rule:nonzero;stroke:none"
             d="M 40,53 H 160 V 73 H 40 Z" /><path
             id="path114"
             style="fill:none;stroke:#000000;stroke-width:1;stroke-linecap:butt;stroke-linejoin:miter;stroke-miterlimit:10;stroke-dasharray:none;stroke-opacity:1"
             d="M 40,53 H 160 V 73 H 40 Z" /></g></g></g></g></svg>