<?xml version="1.0" encoding="UTF-8" standalone="no"?>
<svg
   xmlns:dc="http://purl.org/dc/elements/1.1/"
   xmlns:cc="http://creativecommons.org/ns#"
   xmlns:rdf="http://www.w3.org/1999/02/22-rdf-syntax-ns#"
   xmlns:svg="http://www.w3.org/2000/svg"
   xmlns="http://www.w3.org/2000/svg"
   viewBox="0 0 864 672"
   height="672"
   width="864"
   xml:space="preserve"
   id="svg2"
   version="1.1"><metadata
     id="metadata8"><rdf:RDF><cc:Work
         rdf:about=""><dc:format>image/svg+xml</dc:format><dc:type
           rdf:resource="http://purl.org/dc/dcmitype/StillImage" /></cc:Work></rdf:RDF></metadata><defs
     id="defs6"><clipPath
       id="clipPath36"
       clipPathUnits="userSpaceOnUse"><path
         id="path34"
         d="M -1021,-463 H 1794 V 1233 H -1021 Z" /></clipPath><clipPath
       id="clipPath60"
       clipPathUnits="userSpaceOnUse"><path
         id="path58"
         d="M -1021,-463 H 1794 V 1233 H -1021 Z" /></clipPath><clipPath
       id="clipPath178"
       clipPathUnits="userSpaceOnUse"><path
         id="path176"
         d="M 81,55.44 H 583.2 V 443.52 H 81 Z" /></clipPath><clipPath
       id="clipPath188"
       clipPathUnits="userSpaceOnUse"><path
         id="path186"
         d="M 81,55.44 H 583.2 V 443.52 H 81 Z" /></clipPath><clipPath
       id="clipPath198"
       clipPathUnits="userSpaceOnUse"><path
         id="path196"
         d="M 81,55.44 H 583.2 V 443.52 H 81 Z" /></clipPath><clipPath
       id="clipPath208"
       clipPathUnits="userSpaceOnUse"><path
         id="path206"
         d="M 81,55.44 H 583.2 V 443.52 H 81 Z" /></clipPath><clipPath
       id="clipPath218"
       clipPathUnits="userSpaceOnUse"><path
         id="path216"
         d="M 81,55.44 H 583.2 V 443.52 H 81 Z" /></clipPath><clipPath
       id="clipPath228"
       clipPathUnits="userSpaceOnUse"><path
         id="path226"
         d="M 81,55.44 H 583.2 V 443.52 H 81 Z" /></clipPath><clipPath
       id="clipPath264"
       clipPathUnits="userSpaceOnUse"><path
         id="path262"
         d="M -1021,-463 H 1794 V 1233 H -1021 Z" /></clipPath><clipPath
       id="clipPath296"
       clipPathUnits="userSpaceOnUse"><path
         id="path294"
         d="M -1021,-463 H 1794 V 1233 H -1021 Z" /></clipPath><clipPath
       id="clipPath328"
       clipPathUnits="userSpaceOnUse"><path
         id="path326"
         d="M -1021,-463 H 1794 V 1233 H -1021 Z" /></clipPath></defs><g
     transform="matrix(1.3333333,0,0,-1.3333333,0,672)"
     id="g10"><path
       id="path12"
       style="fill:#ffffff;fill-opacity:1;fill-rule:nonzero;stroke:none"
       d="M 0,0 H 648 V 504 H 0 Z" /><path
       id="path14"
       style="fill:#ffffff;fill-opacity:1;fill-rule:nonzero;stroke:none"
       d="M 81,55.44 H 583.2 V 443.52 H 81 Z" /><path
       id="path16"
       style="fill:#000000;fill-opacity:1;fill-rule:nonzero;stroke:#000000;stroke-width:0.80000001;stroke-linecap:butt;stroke-linejoin:round;stroke-miterlimit:10;stroke-dasharray:none;stroke-opacity:1"
       d="m 103.82727,55.44 v -3.5" /><g
       transform="translate(82.327273,34.19)"
       id="g18"><text
         id="text22"
         style="font-variant:normal;font-weight:normal;font-size:18px;font-family:'DejaVu Sans';-inkscape-font-specification:DejaVuSans;writing-mode:lr-tb;fill:#000000;fill-opacity:1;fill-rule:nonzero;stroke:none"
         transform="matrix(1,0,0,-1,0,0.7578125)"><tspan
           id="tspan20"
           y="0"
           x="0 11.452148">10</tspan></text>
<text
         id="text26"
         style="font-variant:normal;font-weight:normal;font-size:12.60000038px;font-family:'DejaVu Sans';-inkscape-font-specification:DejaVuSans;writing-mode:lr-tb;fill:#000000;fill-opacity:1;fill-rule:nonzero;stroke:none"
         transform="matrix(1,0,0,-1,33.633984,7.6484375)"><tspan
           id="tspan24"
           y="0"
           x="0">2</tspan></text>
<g
         transform="matrix(0.0126,0,0,0.0126,23.076562,7.6484375)"
         id="g28"><g
           id="g30"><g
             clip-path="url(#clipPath36)"
             id="g32"><path
               id="path38"
               style="fill:#000000;fill-opacity:1;fill-rule:nonzero;stroke:none"
               d="M 106,355 H 732 V 272 H 106 Z" /></g></g></g></g><path
       id="path40"
       style="fill:#000000;fill-opacity:1;fill-rule:nonzero;stroke:#000000;stroke-width:0.80000001;stroke-linecap:butt;stroke-linejoin:round;stroke-miterlimit:10;stroke-dasharray:none;stroke-opacity:1"
       d="m 332.1,55.44 v -3.5" /><g
       transform="translate(310.6,34.19)"
       id="g42"><text
         id="text46"
         style="font-variant:normal;font-weight:normal;font-size:18px;font-family:'DejaVu Sans';-inkscape-font-specification:DejaVuSans;writing-mode:lr-tb;fill:#000000;fill-opacity:1;fill-rule:nonzero;stroke:none"
         transform="matrix(1,0,0,-1,0,0.921875)"><tspan
           id="tspan44"
           y="0"
           x="0 11.452148">10</tspan></text>
<text
         id="text50"
         style="font-variant:normal;font-weight:normal;font-size:12.60000038px;font-family:'DejaVu Sans';-inkscape-font-specification:DejaVuSans;writing-mode:lr-tb;fill:#000000;fill-opacity:1;fill-rule:nonzero;stroke:none"
         transform="matrix(1,0,0,-1,33.633984,7.8125)"><tspan
           id="tspan48"
           y="0"
           x="0">1</tspan></text>
<g
         transform="matrix(0.0126,0,0,0.0126,23.076562,7.8125)"
         id="g52"><g
           id="g54"><g
             clip-path="url(#clipPath60)"
             id="g56"><path
               id="path62"
               style="fill:#000000;fill-opacity:1;fill-rule:nonzero;stroke:none"
               d="M 106,355 H 732 V 272 H 106 Z" /></g></g></g></g><path
       id="path64"
       style="fill:#000000;fill-opacity:1;fill-rule:nonzero;stroke:#000000;stroke-width:0.80000001;stroke-linecap:butt;stroke-linejoin:round;stroke-miterlimit:10;stroke-dasharray:none;stroke-opacity:1"
       d="m 560.37273,55.44 v -3.5" /><g
       transform="translate(544.37273,34.19)"
       id="g66"><text
         id="text70"
         style="font-variant:normal;font-weight:normal;font-size:18px;font-family:'DejaVu Sans';-inkscape-font-specification:DejaVuSans;writing-mode:lr-tb;fill:#000000;fill-opacity:1;fill-rule:nonzero;stroke:none"
         transform="matrix(1,0,0,-1,0,0.7578125)"><tspan
           id="tspan68"
           y="0"
           x="0 11.452148">10</tspan></text>
<text
         id="text74"
         style="font-variant:normal;font-weight:normal;font-size:12.60000038px;font-family:'DejaVu Sans';-inkscape-font-specification:DejaVuSans;writing-mode:lr-tb;fill:#000000;fill-opacity:1;fill-rule:nonzero;stroke:none"
         transform="matrix(1,0,0,-1,23.076563,7.6484375)"><tspan
           id="tspan72"
           y="0"
           x="0">0</tspan></text>
</g><path
       id="path76"
       style="fill:#000000;fill-opacity:1;fill-rule:nonzero;stroke:#000000;stroke-width:0.60000002;stroke-linecap:butt;stroke-linejoin:round;stroke-miterlimit:10;stroke-dasharray:none;stroke-opacity:1"
       d="m 81.70536,55.44 v -2" /><path
       id="path78"
       style="fill:#000000;fill-opacity:1;fill-rule:nonzero;stroke:#000000;stroke-width:0.60000002;stroke-linecap:butt;stroke-linejoin:round;stroke-miterlimit:10;stroke-dasharray:none;stroke-opacity:1"
       d="m 93.382086,55.44 v -2" /><path
       id="path80"
       style="fill:#000000;fill-opacity:1;fill-rule:nonzero;stroke:#000000;stroke-width:0.60000002;stroke-linecap:butt;stroke-linejoin:round;stroke-miterlimit:10;stroke-dasharray:none;stroke-opacity:1"
       d="m 172.54421,55.44 v -2" /><path
       id="path82"
       style="fill:#000000;fill-opacity:1;fill-rule:nonzero;stroke:#000000;stroke-width:0.60000002;stroke-linecap:butt;stroke-linejoin:round;stroke-miterlimit:10;stroke-dasharray:none;stroke-opacity:1"
       d="m 212.74104,55.44 v -2" /><path
       id="path84"
       style="fill:#000000;fill-opacity:1;fill-rule:nonzero;stroke:#000000;stroke-width:0.60000002;stroke-linecap:butt;stroke-linejoin:round;stroke-miterlimit:10;stroke-dasharray:none;stroke-opacity:1"
       d="m 241.26115,55.44 v -2" /><path
       id="path86"
       style="fill:#000000;fill-opacity:1;fill-rule:nonzero;stroke:#000000;stroke-width:0.60000002;stroke-linecap:butt;stroke-linejoin:round;stroke-miterlimit:10;stroke-dasharray:none;stroke-opacity:1"
       d="m 263.38306,55.44 v -2" /><path
       id="path88"
       style="fill:#000000;fill-opacity:1;fill-rule:nonzero;stroke:#000000;stroke-width:0.60000002;stroke-linecap:butt;stroke-linejoin:round;stroke-miterlimit:10;stroke-dasharray:none;stroke-opacity:1"
       d="m 281.45798,55.44 v -2" /><path
       id="path90"
       style="fill:#000000;fill-opacity:1;fill-rule:nonzero;stroke:#000000;stroke-width:0.60000002;stroke-linecap:butt;stroke-linejoin:round;stroke-miterlimit:10;stroke-dasharray:none;stroke-opacity:1"
       d="m 296.74011,55.44 v -2" /><path
       id="path92"
       style="fill:#000000;fill-opacity:1;fill-rule:nonzero;stroke:#000000;stroke-width:0.60000002;stroke-linecap:butt;stroke-linejoin:round;stroke-miterlimit:10;stroke-dasharray:none;stroke-opacity:1"
       d="m 309.97809,55.44 v -2" /><path
       id="path94"
       style="fill:#000000;fill-opacity:1;fill-rule:nonzero;stroke:#000000;stroke-width:0.60000002;stroke-linecap:butt;stroke-linejoin:round;stroke-miterlimit:10;stroke-dasharray:none;stroke-opacity:1"
       d="m 321.65481,55.44 v -2" /><path
       id="path96"
       style="fill:#000000;fill-opacity:1;fill-rule:nonzero;stroke:#000000;stroke-width:0.60000002;stroke-linecap:butt;stroke-linejoin:round;stroke-miterlimit:10;stroke-dasharray:none;stroke-opacity:1"
       d="m 400.81694,55.44 v -2" /><path
       id="path98"
       style="fill:#000000;fill-opacity:1;fill-rule:nonzero;stroke:#000000;stroke-width:0.60000002;stroke-linecap:butt;stroke-linejoin:round;stroke-miterlimit:10;stroke-dasharray:none;stroke-opacity:1"
       d="m 441.01377,55.44 v -2" /><path
       id="path100"
       style="fill:#000000;fill-opacity:1;fill-rule:nonzero;stroke:#000000;stroke-width:0.60000002;stroke-linecap:butt;stroke-linejoin:round;stroke-miterlimit:10;stroke-dasharray:none;stroke-opacity:1"
       d="m 469.53388,55.44 v -2" /><path
       id="path102"
       style="fill:#000000;fill-opacity:1;fill-rule:nonzero;stroke:#000000;stroke-width:0.60000002;stroke-linecap:butt;stroke-linejoin:round;stroke-miterlimit:10;stroke-dasharray:none;stroke-opacity:1"
       d="m 491.65579,55.44 v -2" /><path
       id="path104"
       style="fill:#000000;fill-opacity:1;fill-rule:nonzero;stroke:#000000;stroke-width:0.60000002;stroke-linecap:butt;stroke-linejoin:round;stroke-miterlimit:10;stroke-dasharray:none;stroke-opacity:1"
       d="m 509.73071,55.44 v -2" /><path
       id="path106"
       style="fill:#000000;fill-opacity:1;fill-rule:nonzero;stroke:#000000;stroke-width:0.60000002;stroke-linecap:butt;stroke-linejoin:round;stroke-miterlimit:10;stroke-dasharray:none;stroke-opacity:1"
       d="m 525.01283,55.44 v -2" /><path
       id="path108"
       style="fill:#000000;fill-opacity:1;fill-rule:nonzero;stroke:#000000;stroke-width:0.60000002;stroke-linecap:butt;stroke-linejoin:round;stroke-miterlimit:10;stroke-dasharray:none;stroke-opacity:1"
       d="m 538.25081,55.44 v -2" /><path
       id="path110"
       style="fill:#000000;fill-opacity:1;fill-rule:nonzero;stroke:#000000;stroke-width:0.60000002;stroke-linecap:butt;stroke-linejoin:round;stroke-miterlimit:10;stroke-dasharray:none;stroke-opacity:1"
       d="m 549.92754,55.44 v -2" /><g
       transform="translate(224.79531,12.768125)"
       id="g112"><text
         id="text116"
         style="font-variant:normal;font-weight:normal;font-size:18px;font-family:'DejaVu Sans';-inkscape-font-specification:DejaVuSans;writing-mode:lr-tb;fill:#000000;fill-opacity:1;fill-rule:nonzero;stroke:none"
         transform="scale(1,-1)"><tspan
           id="tspan114"
           y="0"
           x="0 8.7093754 19.743376 24.747375 34.125374 45.195374 50.919376 61.132751 72.14875 81.526749 86.530746 93.586746 98.590752 109.24675 120.31675 126.04075 138.16013 149.19412 156.25012 167.32013 173.04413 180.06412 185.06813 196.08412 207.51413">False Positive Rate (log)</tspan></text>
</g><path
       id="path118"
       style="fill:#000000;fill-opacity:1;fill-rule:nonzero;stroke:#000000;stroke-width:0.80000001;stroke-linecap:butt;stroke-linejoin:round;stroke-miterlimit:10;stroke-dasharray:none;stroke-opacity:1"
       d="M 81,73.08 H 77.5" /><g
       transform="translate(45.375,66.244063)"
       id="g120"><text
         id="text124"
         style="font-variant:normal;font-weight:normal;font-size:18px;font-family:'DejaVu Sans';-inkscape-font-specification:DejaVuSans;writing-mode:lr-tb;fill:#000000;fill-opacity:1;fill-rule:nonzero;stroke:none"
         transform="scale(1,-1)"><tspan
           id="tspan122"
           y="0"
           x="0 11.448 17.172001">0.0</tspan></text>
</g><path
       id="path126"
       style="fill:#000000;fill-opacity:1;fill-rule:nonzero;stroke:#000000;stroke-width:0.80000001;stroke-linecap:butt;stroke-linejoin:round;stroke-miterlimit:10;stroke-dasharray:none;stroke-opacity:1"
       d="M 81,143.64 H 77.5" /><g
       transform="translate(45.375,136.80406)"
       id="g128"><text
         id="text132"
         style="font-variant:normal;font-weight:normal;font-size:18px;font-family:'DejaVu Sans';-inkscape-font-specification:DejaVuSans;writing-mode:lr-tb;fill:#000000;fill-opacity:1;fill-rule:nonzero;stroke:none"
         transform="scale(1,-1)"><tspan
           id="tspan130"
           y="0"
           x="0 11.448 17.172001">0.2</tspan></text>
</g><path
       id="path134"
       style="fill:#000000;fill-opacity:1;fill-rule:nonzero;stroke:#000000;stroke-width:0.80000001;stroke-linecap:butt;stroke-linejoin:round;stroke-miterlimit:10;stroke-dasharray:none;stroke-opacity:1"
       d="M 81,214.2 H 77.5" /><g
       transform="translate(45.375,207.36406)"
       id="g136"><text
         id="text140"
         style="font-variant:normal;font-weight:normal;font-size:18px;font-family:'DejaVu Sans';-inkscape-font-specification:DejaVuSans;writing-mode:lr-tb;fill:#000000;fill-opacity:1;fill-rule:nonzero;stroke:none"
         transform="scale(1,-1)"><tspan
           id="tspan138"
           y="0"
           x="0 11.448 17.172001">0.4</tspan></text>
</g><path
       id="path142"
       style="fill:#000000;fill-opacity:1;fill-rule:nonzero;stroke:#000000;stroke-width:0.80000001;stroke-linecap:butt;stroke-linejoin:round;stroke-miterlimit:10;stroke-dasharray:none;stroke-opacity:1"
       d="M 81,284.76 H 77.5" /><g
       transform="translate(45.375,277.92406)"
       id="g144"><text
         id="text148"
         style="font-variant:normal;font-weight:normal;font-size:18px;font-family:'DejaVu Sans';-inkscape-font-specification:DejaVuSans;writing-mode:lr-tb;fill:#000000;fill-opacity:1;fill-rule:nonzero;stroke:none"
         transform="scale(1,-1)"><tspan
           id="tspan146"
           y="0"
           x="0 11.448 17.172001">0.6</tspan></text>
</g><path
       id="path150"
       style="fill:#000000;fill-opacity:1;fill-rule:nonzero;stroke:#000000;stroke-width:0.80000001;stroke-linecap:butt;stroke-linejoin:round;stroke-miterlimit:10;stroke-dasharray:none;stroke-opacity:1"
       d="M 81,355.32 H 77.5" /><g
       transform="translate(45.375,348.48406)"
       id="g152"><text
         id="text156"
         style="font-variant:normal;font-weight:normal;font-size:18px;font-family:'DejaVu Sans';-inkscape-font-specification:DejaVuSans;writing-mode:lr-tb;fill:#000000;fill-opacity:1;fill-rule:nonzero;stroke:none"
         transform="scale(1,-1)"><tspan
           id="tspan154"
           y="0"
           x="0 11.448 17.172001">0.8</tspan></text>
</g><path
       id="path158"
       style="fill:#000000;fill-opacity:1;fill-rule:nonzero;stroke:#000000;stroke-width:0.80000001;stroke-linecap:butt;stroke-linejoin:round;stroke-miterlimit:10;stroke-dasharray:none;stroke-opacity:1"
       d="M 81,425.88 H 77.5" /><g
       transform="translate(45.375,419.04406)"
       id="g160"><text
         id="text164"
         style="font-variant:normal;font-weight:normal;font-size:18px;font-family:'DejaVu Sans';-inkscape-font-specification:DejaVuSans;writing-mode:lr-tb;fill:#000000;fill-opacity:1;fill-rule:nonzero;stroke:none"
         transform="scale(1,-1)"><tspan
           id="tspan162"
           y="0"
           x="0 11.448 17.172001">1.0</tspan></text>
</g><g
       transform="rotate(90,-92.314219,129.93922)"
       id="g166"><text
         id="text170"
         style="font-variant:normal;font-weight:normal;font-size:18px;font-family:'DejaVu Sans';-inkscape-font-specification:DejaVuSans;writing-mode:lr-tb;fill:#000000;fill-opacity:1;fill-rule:nonzero;stroke:none"
         transform="scale(1,-1)"><tspan
           id="tspan168"
           y="0"
           x="0 10.213375 21.229376 35.953377 47.023376">Power</tspan></text>
</g><g
       id="g172"><g
         clip-path="url(#clipPath178)"
         id="g174"><path
           id="path180"
           style="fill:none;stroke:#ff0000;stroke-width:1.5;stroke-linecap:square;stroke-linejoin:round;stroke-miterlimit:10;stroke-dasharray:none;stroke-opacity:1"
           d="m -1,245.952 h 104.82727 v 105.84 h 68.71694 v 17.64 h 40.19683 v 28.224 h 50.64202 v 3.528 h 46.59503 v 3.528 h 48.13207 v 7.056 h 7.34688 v 3.528 h 19.24816 v 3.528 h 5.66655 v 3.528 h 40.19683 v 3.528 h 129.80415 v 0" /></g></g><g
       id="g182"><g
         clip-path="url(#clipPath188)"
         id="g184"><path
           id="path190"
           style="fill:none;stroke:#ff0000;stroke-width:1.5;stroke-linecap:butt;stroke-linejoin:round;stroke-miterlimit:10;stroke-dasharray:5.55, 2.4;stroke-dashoffset:0;stroke-opacity:1"
           d="m -1,311.58073 104.82727,0.10979 v 0 l 68.71694,32.10218 v 0 l 40.19683,17.43449 v 0 l 28.52011,11.46083 22.12191,8.25978 v 0 l 18.07492,6.29092 15.28213,4.97289 13.23798,4.038 11.67672,3.34634 10.44519,2.81789 9.44882,2.40374 16.56134,3.87523 v 0 l 14.18667,2.97455 12.40837,2.34061 v 0 l 11.02664,1.87716 14.53392,2.18751 12.67309,1.64814 11.23513,1.2663 13.23798,1.2676 14.393,1.11906 14.89861,0.89712 14.95222,0.66146 16.4087,0.4889 18.35457,0.3095 22.40079,0.13858 11.55288,0.0107 v 0" /></g></g><g
       id="g192"><g
         clip-path="url(#clipPath198)"
         id="g194"><path
           id="path200"
           style="fill:none;stroke:#008000;stroke-width:1.5;stroke-linecap:square;stroke-linejoin:round;stroke-miterlimit:10;stroke-dasharray:none;stroke-opacity:1"
           d="m -1,284.76 h 104.82727 v 24.696 h 68.71694 v 14.112 h 40.19683 v 7.056 h 28.52011 v 17.64 h 40.19683 v 3.528 h 15.28213 v 10.584 h 24.9147 V 390.6 h 19.89401 v 7.056 h 16.56134 v 10.584 h 7.34688 v 3.528 h 53.43482 v 7.056 h 31.57073 v 3.528 h 8.6261 v 3.528 h 101.28404 v 0" /></g></g><g
       id="g202"><g
         clip-path="url(#clipPath208)"
         id="g204"><path
           id="path210"
           style="fill:none;stroke:#008000;stroke-width:1.5;stroke-linecap:butt;stroke-linejoin:round;stroke-miterlimit:10;stroke-dasharray:5.55, 2.4;stroke-dashoffset:0;stroke-opacity:1"
           d="m -1,255.2316 104.82727,0.0839 v 0 l 68.71694,37.65301 v 0 l 40.19683,22.44292 v 0 l 28.52011,15.71604 v 0 l 22.12191,11.89745 18.07492,9.439 v 0 l 15.28213,7.72879 v 0 l 13.23798,6.47452 11.67672,5.51848 v 0 l 10.44519,4.76802 9.44882,4.16512 v 0 l 16.56134,6.93271 v 0 l 14.18667,5.5364 12.40837,4.51558 11.02664,3.74303 9.92204,3.1425 9.01872,2.66558 12.1545,3.29806 10.82575,2.64802 9.75911,2.15093 8.88394,1.76292 10.72803,1.8823 9.67964,1.46997 10.90522,1.40274 9.82364,1.04171 10.63206,0.90194 11.11504,0.70876 11.34236,0.49897 12.56586,0.32272 14.26532,0.13257 3.01966,0.004 v 0" /></g></g><g
       id="g212"><g
         clip-path="url(#clipPath218)"
         id="g214"><path
           id="path220"
           style="fill:none;stroke:#0000ff;stroke-width:1.5;stroke-linecap:square;stroke-linejoin:round;stroke-miterlimit:10;stroke-dasharray:none;stroke-opacity:1"
           d="m -1,129.528 h 104.82727 v 91.728 h 68.71694 v 7.056 h 40.19683 v 3.528 h 28.52011 v 31.752 h 22.12191 v 24.696 h 33.35705 V 302.4 h 13.23798 v 35.28 h 11.67672 v 10.584 h 43.80223 v 14.112 h 6.83979 v 3.528 h 6.39819 v 17.64 h 17.03682 v 3.528 h 5.0851 v 3.528 h 13.85566 v 3.528 h 19.50138 v 7.056 h 6.83979 v 3.528 h 12.40837 v 7.056 h 11.02664 v 3.528 h 31.09526 v 3.528 h 3.74148 v 3.528 h 16.84338 v 3.528 h 44.24383 v 0" /></g></g><g
       id="g222"><g
         clip-path="url(#clipPath228)"
         id="g224"><path
           id="path230"
           style="fill:none;stroke:#0000ff;stroke-width:1.5;stroke-linecap:butt;stroke-linejoin:round;stroke-miterlimit:10;stroke-dasharray:5.55, 2.4;stroke-dashoffset:0;stroke-opacity:1"
           d="m -1,184.73492 104.82727,0.0514 v 0 l 68.71694,36.10337 v 0 l 40.19683,24.14414 v 0 l 28.52011,18.28909 v 0 l 22.12191,14.71906 v 0 l 33.35705,22.79773 v 0 l 44.80871,30.93069 16.56134,11.23719 14.18667,9.42778 v 0 l 12.40837,8.04092 11.02664,6.94513 v 0 l 9.92204,6.0587 13.23798,7.75625 11.67672,6.48561 10.44519,5.482 v 0 l 9.44882,4.67237 8.6261,4.00798 7.93524,3.45509 7.34688,2.98959 6.83979,2.59377 8.44234,2.93864 7.77949,2.44078 7.21319,2.02635 6.72376,1.67834 7.81015,1.68919 7.23953,1.31217 6.74666,1.00128 7.53306,0.865 7.00086,0.56569 6.53891,0.32262 6.13418,0.11715 v 0" /></g></g><g
       id="g232"><path
         id="path234"
         style="fill:none;stroke:#000000;stroke-width:0.80000001;stroke-linecap:square;stroke-linejoin:miter;stroke-miterlimit:10;stroke-dasharray:none;stroke-opacity:1"
         d="M 81,55.44 V 443.52" /><path
         id="path236"
         style="fill:none;stroke:#000000;stroke-width:0.80000001;stroke-linecap:square;stroke-linejoin:miter;stroke-miterlimit:10;stroke-dasharray:none;stroke-opacity:1"
         d="M 583.2,55.44 V 443.52" /><path
         id="path238"
         style="fill:none;stroke:#000000;stroke-width:0.80000001;stroke-linecap:square;stroke-linejoin:miter;stroke-miterlimit:10;stroke-dasharray:none;stroke-opacity:1"
         d="M 81,55.44 H 583.2" /><path
         id="path240"
         style="fill:none;stroke:#000000;stroke-width:0.80000001;stroke-linecap:square;stroke-linejoin:miter;stroke-miterlimit:10;stroke-dasharray:none;stroke-opacity:1"
         d="M 81,443.52 H 583.2" /><path
         id="path242"
         style="fill:#ffffff;fill-opacity:0.8;fill-rule:nonzero;stroke:#cccccc;stroke-width:1;stroke-linecap:butt;stroke-linejoin:miter;stroke-miterlimit:10;stroke-dasharray:none;stroke-opacity:0.8"
         d="m 409,64.44 h 161.6 c 2.4,0 3.6,1.2 3.6,3.6 v 156.73125 c 0,2.4 -1.2,3.6 -3.6,3.6 H 409 c -2.4,0 -3.6,-1.2 -3.6,-3.6 V 68.04 c 0,-2.4 1.2,-3.6 3.6,-3.6 z" /><path
         id="path244"
         style="fill:none;stroke:#ff0000;stroke-width:1.5;stroke-linecap:square;stroke-linejoin:round;stroke-miterlimit:10;stroke-dasharray:none;stroke-opacity:1"
         d="m 412.6,213.79937 h 18 18" /><g
         transform="translate(463,207.49937)"
         id="g246"><text
           id="text250"
           style="font-style:italic;font-variant:normal;font-size:18px;font-family:'DejaVu Sans';-inkscape-font-specification:DejaVuSans-Oblique;writing-mode:lr-tb;fill:#000000;fill-opacity:1;fill-rule:nonzero;stroke:none"
           transform="matrix(1,0,0,-1,0,0.65625)"><tspan
             id="tspan248"
             y="0"
             x="0">m</tspan></text>
<text
           id="text254"
           style="font-variant:normal;font-weight:normal;font-size:18px;font-family:'DejaVu Sans';-inkscape-font-specification:DejaVuSans;writing-mode:lr-tb;fill:#000000;fill-opacity:1;fill-rule:nonzero;stroke:none"
           transform="matrix(1,0,0,-1,37.381641,0.65625)"><tspan
             id="tspan252"
             y="0"
             x="0 15.082031 26.525391 37.977539 42.324219 53.776367">= 7.75</tspan></text>
<g
           transform="matrix(0.0126,0,0,0.0126,20.825684,7.546875)"
           id="g256"><g
             id="g258"><g
               clip-path="url(#clipPath264)"
               id="g260"><path
                 id="path266"
                 style="fill:#000000;fill-opacity:1;fill-rule:nonzero;stroke:none"
                 d="m 122,374 h 146 l 45,138 46,-138 H 504 L 386,288 432,149 313,235 194,149 240,288 Z" /></g></g></g></g><path
         id="path268"
         style="fill:none;stroke:#ff0000;stroke-width:1.5;stroke-linecap:butt;stroke-linejoin:round;stroke-miterlimit:10;stroke-dasharray:5.55, 2.4;stroke-dashoffset:0;stroke-opacity:1"
         d="m 412.6,187.3775 h 18 18" /><g
         transform="translate(463,181.0775)"
         id="g270"><text
           id="text274"
           style="font-variant:normal;font-weight:normal;font-size:18px;font-family:'DejaVu Sans';-inkscape-font-specification:DejaVuSans;writing-mode:lr-tb;fill:#000000;fill-opacity:1;fill-rule:nonzero;stroke:none"
           transform="scale(1,-1)"><tspan
             id="tspan272"
             y="0"
             x="0 10.998 22.41 33.48 44.495998 51.503376 62.573376 69.629372 74.633377 84.533379 95.567375">Theoretical</tspan></text>
</g><path
         id="path276"
         style="fill:none;stroke:#008000;stroke-width:1.5;stroke-linecap:square;stroke-linejoin:round;stroke-miterlimit:10;stroke-dasharray:none;stroke-opacity:1"
         d="m 412.6,160.95562 h 18 18" /><g
         transform="translate(463,154.65562)"
         id="g278"><text
           id="text282"
           style="font-style:italic;font-variant:normal;font-size:18px;font-family:'DejaVu Sans';-inkscape-font-specification:DejaVuSans-Oblique;writing-mode:lr-tb;fill:#000000;fill-opacity:1;fill-rule:nonzero;stroke:none"
           transform="matrix(1,0,0,-1,0,0.640625)"><tspan
             id="tspan280"
             y="0"
             x="0">m</tspan></text>
<text
           id="text286"
           style="font-variant:normal;font-weight:normal;font-size:18px;font-family:'DejaVu Sans';-inkscape-font-specification:DejaVuSans;writing-mode:lr-tb;fill:#000000;fill-opacity:1;fill-rule:nonzero;stroke:none"
           transform="matrix(1,0,0,-1,37.381641,0.640625)"><tspan
             id="tspan284"
             y="0"
             x="0 15.082031 26.525391 37.977539 43.699219 55.151367">= 5.61</tspan></text>
<g
           transform="matrix(0.0126,0,0,0.0126,20.825684,7.53125)"
           id="g288"><g
             id="g290"><g
               clip-path="url(#clipPath296)"
               id="g292"><path
                 id="path298"
                 style="fill:#000000;fill-opacity:1;fill-rule:nonzero;stroke:none"
                 d="m 122,374 h 146 l 45,138 46,-138 H 504 L 386,288 432,149 313,235 194,149 240,288 Z" /></g></g></g></g><path
         id="path300"
         style="fill:none;stroke:#008000;stroke-width:1.5;stroke-linecap:butt;stroke-linejoin:round;stroke-miterlimit:10;stroke-dasharray:5.55, 2.4;stroke-dashoffset:0;stroke-opacity:1"
         d="m 412.6,134.53375 h 18 18" /><g
         transform="translate(463,128.23375)"
         id="g302"><text
           id="text306"
           style="font-variant:normal;font-weight:normal;font-size:18px;font-family:'DejaVu Sans';-inkscape-font-specification:DejaVuSans;writing-mode:lr-tb;fill:#000000;fill-opacity:1;fill-rule:nonzero;stroke:none"
           transform="scale(1,-1)"><tspan
             id="tspan304"
             y="0"
             x="0 10.998 22.41 33.48 44.495998 51.503376 62.573376 69.629372 74.633377 84.533379 95.567375">Theoretical</tspan></text>
</g><path
         id="path308"
         style="fill:none;stroke:#0000ff;stroke-width:1.5;stroke-linecap:square;stroke-linejoin:round;stroke-miterlimit:10;stroke-dasharray:none;stroke-opacity:1"
         d="m 412.6,108.11187 h 18 18" /><g
         transform="translate(463,101.81188)"
         id="g310"><text
           id="text314"
           style="font-style:italic;font-variant:normal;font-size:18px;font-family:'DejaVu Sans';-inkscape-font-specification:DejaVuSans-Oblique;writing-mode:lr-tb;fill:#000000;fill-opacity:1;fill-rule:nonzero;stroke:none"
           transform="matrix(1,0,0,-1,0,0.640625)"><tspan
             id="tspan312"
             y="0"
             x="0">m</tspan></text>
<text
           id="text318"
           style="font-variant:normal;font-weight:normal;font-size:18px;font-family:'DejaVu Sans';-inkscape-font-specification:DejaVuSans;writing-mode:lr-tb;fill:#000000;fill-opacity:1;fill-rule:nonzero;stroke:none"
           transform="matrix(1,0,0,-1,37.381641,0.640625)"><tspan
             id="tspan316"
             y="0"
             x="0 15.082031 26.525391 37.977539 43.699219 55.151367">= 3.42</tspan></text>
<g
           transform="matrix(0.0126,0,0,0.0126,20.825684,7.53125)"
           id="g320"><g
             id="g322"><g
               clip-path="url(#clipPath328)"
               id="g324"><path
                 id="path330"
                 style="fill:#000000;fill-opacity:1;fill-rule:nonzero;stroke:none"
                 d="m 122,374 h 146 l 45,138 46,-138 H 504 L 386,288 432,149 313,235 194,149 240,288 Z" /></g></g></g></g><path
         id="path332"
         style="fill:none;stroke:#0000ff;stroke-width:1.5;stroke-linecap:butt;stroke-linejoin:round;stroke-miterlimit:10;stroke-dasharray:5.55, 2.4;stroke-dashoffset:0;stroke-opacity:1"
         d="m 412.6,81.69 h 18 18" /><g
         transform="translate(463,75.39)"
         id="g334"><text
           id="text338"
           style="font-variant:normal;font-weight:normal;font-size:18px;font-family:'DejaVu Sans';-inkscape-font-specification:DejaVuSans;writing-mode:lr-tb;fill:#000000;fill-opacity:1;fill-rule:nonzero;stroke:none"
           transform="scale(1,-1)"><tspan
             id="tspan336"
             y="0"
             x="0 10.998 22.41 33.48 44.495998 51.503376 62.573376 69.629372 74.633377 84.533379 95.567375">Theoretical</tspan></text>
</g></g></g></svg>