<?xml version="1.0" encoding="UTF-8" standalone="no"?>
<svg
   xmlns:dc="http://purl.org/dc/elements/1.1/"
   xmlns:cc="http://creativecommons.org/ns#"
   xmlns:rdf="http://www.w3.org/1999/02/22-rdf-syntax-ns#"
   xmlns:svg="http://www.w3.org/2000/svg"
   xmlns="http://www.w3.org/2000/svg"
   viewBox="0 0 864 672"
   height="672"
   width="864"
   xml:space="preserve"
   id="svg2"
   version="1.1"><metadata
     id="metadata8"><rdf:RDF><cc:Work
         rdf:about=""><dc:format>image/svg+xml</dc:format><dc:type
           rdf:resource="http://purl.org/dc/dcmitype/StillImage" /></cc:Work></rdf:RDF></metadata><defs
     id="defs6"><clipPath
       id="clipPath22"
       clipPathUnits="userSpaceOnUse"><path
         id="path20"
         d="M 81,55.44 H 583.2 V 443.52 H 81 Z" /></clipPath><clipPath
       id="clipPath32"
       clipPathUnits="userSpaceOnUse"><path
         id="path30"
         d="M 81,55.44 H 583.2 V 443.52 H 81 Z" /></clipPath><clipPath
       id="clipPath42"
       clipPathUnits="userSpaceOnUse"><path
         id="path40"
         d="M 81,55.44 H 583.2 V 443.52 H 81 Z" /></clipPath><clipPath
       id="clipPath52"
       clipPathUnits="userSpaceOnUse"><path
         id="path50"
         d="M 81,55.44 H 583.2 V 443.52 H 81 Z" /></clipPath><clipPath
       id="clipPath62"
       clipPathUnits="userSpaceOnUse"><path
         id="path60"
         d="M 81,55.44 H 583.2 V 443.52 H 81 Z" /></clipPath><clipPath
       id="clipPath72"
       clipPathUnits="userSpaceOnUse"><path
         id="path70"
         d="M 81,55.44 H 583.2 V 443.52 H 81 Z" /></clipPath><clipPath
       id="clipPath82"
       clipPathUnits="userSpaceOnUse"><path
         id="path80"
         d="M 81,55.44 H 583.2 V 443.52 H 81 Z" /></clipPath><clipPath
       id="clipPath92"
       clipPathUnits="userSpaceOnUse"><path
         id="path90"
         d="M 81,55.44 H 583.2 V 443.52 H 81 Z" /></clipPath><clipPath
       id="clipPath102"
       clipPathUnits="userSpaceOnUse"><path
         id="path100"
         d="M 81,55.44 H 583.2 V 443.52 H 81 Z" /></clipPath><clipPath
       id="clipPath112"
       clipPathUnits="userSpaceOnUse"><path
         id="path110"
         d="M 81,55.44 H 583.2 V 443.52 H 81 Z" /></clipPath><clipPath
       id="clipPath122"
       clipPathUnits="userSpaceOnUse"><path
         id="path120"
         d="M 81,55.44 H 583.2 V 443.52 H 81 Z" /></clipPath><clipPath
       id="clipPath132"
       clipPathUnits="userSpaceOnUse"><path
         id="path130"
         d="M 81,55.44 H 583.2 V 443.52 H 81 Z" /></clipPath><clipPath
       id="clipPath142"
       clipPathUnits="userSpaceOnUse"><path
         id="path140"
         d="M 81,55.44 H 583.2 V 443.52 H 81 Z" /></clipPath><clipPath
       id="clipPath152"
       clipPathUnits="userSpaceOnUse"><path
         id="path150"
         d="M 81,55.44 H 583.2 V 443.52 H 81 Z" /></clipPath><clipPath
       id="clipPath162"
       clipPathUnits="userSpaceOnUse"><path
         id="path160"
         d="M 81,55.44 H 583.2 V 443.52 H 81 Z" /></clipPath><clipPath
       id="clipPath172"
       clipPathUnits="userSpaceOnUse"><path
         id="path170"
         d="M 81,55.44 H 583.2 V 443.52 H 81 Z" /></clipPath><clipPath
       id="clipPath182"
       clipPathUnits="userSpaceOnUse"><path
         id="path180"
         d="M 81,55.44 H 583.2 V 443.52 H 81 Z" /></clipPath><clipPath
       id="clipPath192"
       clipPathUnits="userSpaceOnUse"><path
         id="path190"
         d="M 81,55.44 H 583.2 V 443.52 H 81 Z" /></clipPath><clipPath
       id="clipPath202"
       clipPathUnits="userSpaceOnUse"><path
         id="path200"
         d="M 81,55.44 H 583.2 V 443.52 H 81 Z" /></clipPath><clipPath
       id="clipPath212"
       clipPathUnits="userSpaceOnUse"><path
         id="path210"
         d="M 81,55.44 H 583.2 V 443.52 H 81 Z" /></clipPath><clipPath
       id="clipPath222"
       clipPathUnits="userSpaceOnUse"><path
         id="path220"
         d="M 81,55.44 H 583.2 V 443.52 H 81 Z" /></clipPath><clipPath
       id="clipPath232"
       clipPathUnits="userSpaceOnUse"><path
         id="path230"
         d="M 81,55.44 H 583.2 V 443.52 H 81 Z" /></clipPath><clipPath
       id="clipPath242"
       clipPathUnits="userSpaceOnUse"><path
         id="path240"
         d="M 81,55.44 H 583.2 V 443.52 H 81 Z" /></clipPath><clipPath
       id="clipPath252"
       clipPathUnits="userSpaceOnUse"><path
         id="path250"
         d="M 81,55.44 H 583.2 V 443.52 H 81 Z" /></clipPath><clipPath
       id="clipPath262"
       clipPathUnits="userSpaceOnUse"><path
         id="path260"
         d="M 81,55.44 H 583.2 V 443.52 H 81 Z" /></clipPath><clipPath
       id="clipPath272"
       clipPathUnits="userSpaceOnUse"><path
         id="path270"
         d="M 81,55.44 H 583.2 V 443.52 H 81 Z" /></clipPath><clipPath
       id="clipPath282"
       clipPathUnits="userSpaceOnUse"><path
         id="path280"
         d="M 81,55.44 H 583.2 V 443.52 H 81 Z" /></clipPath><clipPath
       id="clipPath292"
       clipPathUnits="userSpaceOnUse"><path
         id="path290"
         d="M 81,55.44 H 583.2 V 443.52 H 81 Z" /></clipPath><clipPath
       id="clipPath302"
       clipPathUnits="userSpaceOnUse"><path
         id="path300"
         d="M 81,55.44 H 583.2 V 443.52 H 81 Z" /></clipPath><clipPath
       id="clipPath312"
       clipPathUnits="userSpaceOnUse"><path
         id="path310"
         d="M 81,55.44 H 583.2 V 443.52 H 81 Z" /></clipPath><clipPath
       id="clipPath322"
       clipPathUnits="userSpaceOnUse"><path
         id="path320"
         d="M 81,55.44 H 583.2 V 443.52 H 81 Z" /></clipPath><clipPath
       id="clipPath332"
       clipPathUnits="userSpaceOnUse"><path
         id="path330"
         d="M 81,55.44 H 583.2 V 443.52 H 81 Z" /></clipPath><clipPath
       id="clipPath342"
       clipPathUnits="userSpaceOnUse"><path
         id="path340"
         d="M 81,55.44 H 583.2 V 443.52 H 81 Z" /></clipPath><clipPath
       id="clipPath352"
       clipPathUnits="userSpaceOnUse"><path
         id="path350"
         d="M 81,55.44 H 583.2 V 443.52 H 81 Z" /></clipPath><clipPath
       id="clipPath374"
       clipPathUnits="userSpaceOnUse"><path
         id="path372"
         d="M -1021,-463 H 1794 V 1233 H -1021 Z" /></clipPath><clipPath
       id="clipPath394"
       clipPathUnits="userSpaceOnUse"><path
         id="path392"
         d="M -1021,-463 H 1794 V 1233 H -1021 Z" /></clipPath><clipPath
       id="clipPath414"
       clipPathUnits="userSpaceOnUse"><path
         id="path412"
         d="M -1021,-463 H 1794 V 1233 H -1021 Z" /></clipPath><clipPath
       id="clipPath434"
       clipPathUnits="userSpaceOnUse"><path
         id="path432"
         d="M -1021,-463 H 1794 V 1233 H -1021 Z" /></clipPath><clipPath
       id="clipPath552"
       clipPathUnits="userSpaceOnUse"><path
         id="path550"
         d="M 81,55.44 H 583.2 V 443.52 H 81 Z" /></clipPath><clipPath
       id="clipPath562"
       clipPathUnits="userSpaceOnUse"><path
         id="path560"
         d="M 81,55.44 H 583.2 V 443.52 H 81 Z" /></clipPath><clipPath
       id="clipPath572"
       clipPathUnits="userSpaceOnUse"><path
         id="path570"
         d="M 81,55.44 H 583.2 V 443.52 H 81 Z" /></clipPath><clipPath
       id="clipPath582"
       clipPathUnits="userSpaceOnUse"><path
         id="path580"
         d="M 81,55.44 H 583.2 V 443.52 H 81 Z" /></clipPath><clipPath
       id="clipPath614"
       clipPathUnits="userSpaceOnUse"><path
         id="path612"
         d="M -1021,-463 H 1794 V 1233 H -1021 Z" /></clipPath><clipPath
       id="clipPath640"
       clipPathUnits="userSpaceOnUse"><path
         id="path638"
         d="M -1021,-463 H 1794 V 1233 H -1021 Z" /></clipPath><clipPath
       id="clipPath652"
       clipPathUnits="userSpaceOnUse"><path
         id="path650"
         d="M -1021,-463 H 1794 V 1233 H -1021 Z" /></clipPath></defs><g
     transform="matrix(1.3333333,0,0,-1.3333333,0,672)"
     id="g10"><path
       id="path12"
       style="fill:#ffffff;fill-opacity:1;fill-rule:nonzero;stroke:none"
       d="M 0,0 H 648 V 504 H 0 Z" /><path
       id="path14"
       style="fill:#ffffff;fill-opacity:1;fill-rule:nonzero;stroke:none"
       d="M 81,55.44 H 583.2 V 443.52 H 81 Z" /><g
       id="g16"><g
         clip-path="url(#clipPath22)"
         id="g18"><path
           id="path24"
           style="fill:#0000ff;fill-opacity:1;fill-rule:nonzero;stroke:none"
           d="m 109.5319,55.44 h 15.67384 V 81.949089 H 109.5319 Z" /></g></g><g
       id="g26"><g
         clip-path="url(#clipPath32)"
         id="g28"><path
           id="path34"
           style="fill:#0000ff;fill-opacity:1;fill-rule:nonzero;stroke:none"
           d="m 125.20574,55.44 h 15.67384 v 22.090907 h -15.67384 z" /></g></g><g
       id="g36"><g
         clip-path="url(#clipPath42)"
         id="g38"><path
           id="path44"
           style="fill:#0000ff;fill-opacity:1;fill-rule:nonzero;stroke:none"
           d="m 140.87958,55.44 h 15.67384 v 44.181814 h -15.67384 z" /></g></g><g
       id="g46"><g
         clip-path="url(#clipPath52)"
         id="g48"><path
           id="path54"
           style="fill:#0000ff;fill-opacity:1;fill-rule:nonzero;stroke:none"
           d="m 156.55342,55.44 h 15.67384 v 150.21817 h -15.67384 z" /></g></g><g
       id="g56"><g
         clip-path="url(#clipPath62)"
         id="g58"><path
           id="path64"
           style="fill:#0000ff;fill-opacity:1;fill-rule:nonzero;stroke:none"
           d="M 172.22726,55.44 H 187.9011 V 196.82181 H 172.22726 Z" /></g></g><g
       id="g66"><g
         clip-path="url(#clipPath72)"
         id="g68"><path
           id="path74"
           style="fill:#0000ff;fill-opacity:1;fill-rule:nonzero;stroke:none"
           d="m 187.9011,55.44 h 15.67384 V 254.25816 H 187.9011 Z" /></g></g><g
       id="g76"><g
         clip-path="url(#clipPath82)"
         id="g78"><path
           id="path84"
           style="fill:#0000ff;fill-opacity:1;fill-rule:nonzero;stroke:none"
           d="m 203.57494,55.44 h 15.67384 v 251.83634 h -15.67384 z" /></g></g><g
       id="g86"><g
         clip-path="url(#clipPath92)"
         id="g88"><path
           id="path94"
           style="fill:#0000ff;fill-opacity:1;fill-rule:nonzero;stroke:none"
           d="m 219.24878,55.44 h 15.67384 v 309.2727 h -15.67384 z" /></g></g><g
       id="g96"><g
         clip-path="url(#clipPath102)"
         id="g98"><path
           id="path104"
           style="fill:#0000ff;fill-opacity:1;fill-rule:nonzero;stroke:none"
           d="m 234.92262,55.44 h 15.67384 v 287.18179 h -15.67384 z" /></g></g><g
       id="g106"><g
         clip-path="url(#clipPath112)"
         id="g108"><path
           id="path114"
           style="fill:#0000ff;fill-opacity:1;fill-rule:nonzero;stroke:none"
           d="M 250.59646,55.44 H 266.2703 V 324.94907 H 250.59646 Z" /></g></g><g
       id="g116"><g
         clip-path="url(#clipPath122)"
         id="g118"><path
           id="path124"
           style="fill:#0000ff;fill-opacity:1;fill-rule:nonzero;stroke:none"
           d="m 266.2703,55.44 h 15.67384 V 254.25816 H 266.2703 Z" /></g></g><g
       id="g126"><g
         clip-path="url(#clipPath132)"
         id="g128"><path
           id="path134"
           style="fill:#0000ff;fill-opacity:1;fill-rule:nonzero;stroke:none"
           d="m 281.94414,55.44 h 15.67384 v 128.12726 h -15.67384 z" /></g></g><g
       id="g136"><g
         clip-path="url(#clipPath142)"
         id="g138"><path
           id="path144"
           style="fill:#0000ff;fill-opacity:1;fill-rule:nonzero;stroke:none"
           d="m 297.61798,55.44 h 15.67384 v 114.87272 h -15.67384 z" /></g></g><g
       id="g146"><g
         clip-path="url(#clipPath152)"
         id="g148"><path
           id="path154"
           style="fill:#0000ff;fill-opacity:1;fill-rule:nonzero;stroke:none"
           d="m 313.29182,55.44 h 15.67384 v 39.763633 h -15.67384 z" /></g></g><g
       id="g156"><g
         clip-path="url(#clipPath162)"
         id="g158"><path
           id="path164"
           style="fill:#0000ff;fill-opacity:1;fill-rule:nonzero;stroke:none"
           d="M 328.96566,55.44 H 344.6395 V 73.112726 H 328.96566 Z" /></g></g><g
       id="g166"><g
         clip-path="url(#clipPath172)"
         id="g168"><path
           id="path174"
           style="fill:#0000ff;fill-opacity:1;fill-rule:nonzero;stroke:none"
           d="m 344.6395,55.44 h 15.67384 v 8.836363 H 344.6395 Z" /></g></g><g
       id="g176"><g
         clip-path="url(#clipPath182)"
         id="g178"><path
           id="path184"
           style="fill:#ff0000;fill-opacity:1;fill-rule:nonzero;stroke:none"
           d="m 278.11829,55.44 h 15.36388 v 13.521951 h -15.36388 z" /></g></g><g
       id="g186"><g
         clip-path="url(#clipPath192)"
         id="g188"><path
           id="path194"
           style="fill:#ff0000;fill-opacity:1;fill-rule:nonzero;stroke:none"
           d="m 293.48217,55.44 h 15.36388 v 18.029268 h -15.36388 z" /></g></g><g
       id="g196"><g
         clip-path="url(#clipPath202)"
         id="g198"><path
           id="path204"
           style="fill:#ff0000;fill-opacity:1;fill-rule:nonzero;stroke:none"
           d="m 308.84605,55.44 h 15.36388 v 9.014634 h -15.36388 z" /></g></g><g
       id="g206"><g
         clip-path="url(#clipPath212)"
         id="g208"><path
           id="path214"
           style="fill:#ff0000;fill-opacity:1;fill-rule:nonzero;stroke:none"
           d="m 324.20993,55.44 h 15.36388 v 54.08781 h -15.36388 z" /></g></g><g
       id="g216"><g
         clip-path="url(#clipPath222)"
         id="g218"><path
           id="path224"
           style="fill:#ff0000;fill-opacity:1;fill-rule:nonzero;stroke:none"
           d="m 339.57381,55.44 h 15.36387 v 99.16098 h -15.36387 z" /></g></g><g
       id="g226"><g
         clip-path="url(#clipPath232)"
         id="g228"><path
           id="path234"
           style="fill:#ff0000;fill-opacity:1;fill-rule:nonzero;stroke:none"
           d="m 354.93768,55.44 h 15.36388 v 189.30732 h -15.36388 z" /></g></g><g
       id="g236"><g
         clip-path="url(#clipPath242)"
         id="g238"><path
           id="path244"
           style="fill:#ff0000;fill-opacity:1;fill-rule:nonzero;stroke:none"
           d="m 370.30156,55.44 h 15.36388 v 243.39512 h -15.36388 z" /></g></g><g
       id="g246"><g
         clip-path="url(#clipPath252)"
         id="g248"><path
           id="path254"
           style="fill:#ff0000;fill-opacity:1;fill-rule:nonzero;stroke:none"
           d="m 385.66544,55.44 h 15.36388 v 265.93171 h -15.36388 z" /></g></g><g
       id="g256"><g
         clip-path="url(#clipPath262)"
         id="g258"><path
           id="path264"
           style="fill:#ff0000;fill-opacity:1;fill-rule:nonzero;stroke:none"
           d="m 401.02932,55.44 h 15.36388 v 369.6 h -15.36388 z" /></g></g><g
       id="g266"><g
         clip-path="url(#clipPath272)"
         id="g268"><path
           id="path274"
           style="fill:#ff0000;fill-opacity:1;fill-rule:nonzero;stroke:none"
           d="m 416.3932,55.44 h 15.36387 V 334.89366 H 416.3932 Z" /></g></g><g
       id="g276"><g
         clip-path="url(#clipPath282)"
         id="g278"><path
           id="path284"
           style="fill:#ff0000;fill-opacity:1;fill-rule:nonzero;stroke:none"
           d="m 431.75707,55.44 h 15.36388 v 256.91707 h -15.36388 z" /></g></g><g
       id="g286"><g
         clip-path="url(#clipPath292)"
         id="g288"><path
           id="path294"
           style="fill:#ff0000;fill-opacity:1;fill-rule:nonzero;stroke:none"
           d="m 447.12095,55.44 h 15.36388 v 157.7561 h -15.36388 z" /></g></g><g
       id="g296"><g
         clip-path="url(#clipPath302)"
         id="g298"><path
           id="path304"
           style="fill:#ff0000;fill-opacity:1;fill-rule:nonzero;stroke:none"
           d="m 462.48483,55.44 h 15.36388 v 175.78537 h -15.36388 z" /></g></g><g
       id="g306"><g
         clip-path="url(#clipPath312)"
         id="g308"><path
           id="path314"
           style="fill:#ff0000;fill-opacity:1;fill-rule:nonzero;stroke:none"
           d="m 477.84871,55.44 h 15.36388 v 45.07317 h -15.36388 z" /></g></g><g
       id="g316"><g
         clip-path="url(#clipPath322)"
         id="g318"><path
           id="path324"
           style="fill:#ff0000;fill-opacity:1;fill-rule:nonzero;stroke:none"
           d="m 493.21259,55.44 h 15.36387 v 54.08781 h -15.36387 z" /></g></g><g
       id="g326"><g
         clip-path="url(#clipPath332)"
         id="g328"><path
           id="path334"
           style="fill:#ff0000;fill-opacity:1;fill-rule:nonzero;stroke:none"
           d="m 508.57646,55.44 h 15.36388 v 9.014634 h -15.36388 z" /></g></g><g
       id="g336"><g
         clip-path="url(#clipPath342)"
         id="g338"><path
           id="path344"
           style="fill:#ff0000;fill-opacity:1;fill-rule:nonzero;stroke:none"
           d="m 523.94034,55.44 h 15.36388 v 9.014634 h -15.36388 z" /></g></g><g
       id="g346"><g
         clip-path="url(#clipPath352)"
         id="g348"><path
           id="path354"
           style="fill:#ff0000;fill-opacity:1;fill-rule:nonzero;stroke:none"
           d="m 539.30422,55.44 h 15.36388 v 4.507317 h -15.36388 z" /></g></g><g
       id="g356"><path
         id="path358"
         style="fill:#000000;fill-opacity:1;fill-rule:nonzero;stroke:#000000;stroke-width:0.80000001;stroke-linecap:butt;stroke-linejoin:round;stroke-miterlimit:10;stroke-dasharray:none;stroke-opacity:1"
         d="m 92.190573,55.44 v -3.5" /><g
         transform="translate(73.198386,34.768125)"
         id="g360"><text
           id="text364"
           style="font-variant:normal;font-weight:normal;font-size:18px;font-family:'DejaVu Sans';-inkscape-font-specification:DejaVuSans;writing-mode:lr-tb;fill:#000000;fill-opacity:1;fill-rule:nonzero;stroke:none"
           transform="matrix(1,0,0,-1,15.082031,0)"><tspan
             id="tspan362"
             y="0"
             x="0 11.448">20</tspan></text>
<g
           transform="scale(0.018)"
           id="g366"><g
             id="g368"><g
               clip-path="url(#clipPath374)"
               id="g370"><path
                 id="path376"
                 style="fill:#000000;fill-opacity:1;fill-rule:nonzero;stroke:none"
                 d="M 106,355 H 732 V 272 H 106 Z" /></g></g></g></g><path
         id="path378"
         style="fill:#000000;fill-opacity:1;fill-rule:nonzero;stroke:#000000;stroke-width:0.80000001;stroke-linecap:butt;stroke-linejoin:round;stroke-miterlimit:10;stroke-dasharray:none;stroke-opacity:1"
         d="m 149.23685,55.44 v -3.5" /><g
         transform="translate(130.24467,34.768125)"
         id="g380"><text
           id="text384"
           style="font-variant:normal;font-weight:normal;font-size:18px;font-family:'DejaVu Sans';-inkscape-font-specification:DejaVuSans;writing-mode:lr-tb;fill:#000000;fill-opacity:1;fill-rule:nonzero;stroke:none"
           transform="matrix(1,0,0,-1,15.082031,0)"><tspan
             id="tspan382"
             y="0"
             x="0 11.448">15</tspan></text>
<g
           transform="scale(0.018)"
           id="g386"><g
             id="g388"><g
               clip-path="url(#clipPath394)"
               id="g390"><path
                 id="path396"
                 style="fill:#000000;fill-opacity:1;fill-rule:nonzero;stroke:none"
                 d="M 106,355 H 732 V 272 H 106 Z" /></g></g></g></g><path
         id="path398"
         style="fill:#000000;fill-opacity:1;fill-rule:nonzero;stroke:#000000;stroke-width:0.80000001;stroke-linecap:butt;stroke-linejoin:round;stroke-miterlimit:10;stroke-dasharray:none;stroke-opacity:1"
         d="m 206.28313,55.44 v -3.5" /><g
         transform="translate(187.29095,34.768125)"
         id="g400"><text
           id="text404"
           style="font-variant:normal;font-weight:normal;font-size:18px;font-family:'DejaVu Sans';-inkscape-font-specification:DejaVuSans;writing-mode:lr-tb;fill:#000000;fill-opacity:1;fill-rule:nonzero;stroke:none"
           transform="matrix(1,0,0,-1,15.082031,0)"><tspan
             id="tspan402"
             y="0"
             x="0 11.448">10</tspan></text>
<g
           transform="scale(0.018)"
           id="g406"><g
             id="g408"><g
               clip-path="url(#clipPath414)"
               id="g410"><path
                 id="path416"
                 style="fill:#000000;fill-opacity:1;fill-rule:nonzero;stroke:none"
                 d="M 106,355 H 732 V 272 H 106 Z" /></g></g></g></g><path
         id="path418"
         style="fill:#000000;fill-opacity:1;fill-rule:nonzero;stroke:#000000;stroke-width:0.80000001;stroke-linecap:butt;stroke-linejoin:round;stroke-miterlimit:10;stroke-dasharray:none;stroke-opacity:1"
         d="m 263.32942,55.44 v -3.5" /><g
         transform="translate(250.06379,34.768125)"
         id="g420"><text
           id="text424"
           style="font-variant:normal;font-weight:normal;font-size:18px;font-family:'DejaVu Sans';-inkscape-font-specification:DejaVuSans;writing-mode:lr-tb;fill:#000000;fill-opacity:1;fill-rule:nonzero;stroke:none"
           transform="matrix(1,0,0,-1,15.082031,0)"><tspan
             id="tspan422"
             y="0"
             x="0">5</tspan></text>
<g
           transform="scale(0.018)"
           id="g426"><g
             id="g428"><g
               clip-path="url(#clipPath434)"
               id="g430"><path
                 id="path436"
                 style="fill:#000000;fill-opacity:1;fill-rule:nonzero;stroke:none"
                 d="M 106,355 H 732 V 272 H 106 Z" /></g></g></g></g><path
         id="path438"
         style="fill:#000000;fill-opacity:1;fill-rule:nonzero;stroke:#000000;stroke-width:0.80000001;stroke-linecap:butt;stroke-linejoin:round;stroke-miterlimit:10;stroke-dasharray:none;stroke-opacity:1"
         d="m 320.3757,55.44 v -3.5" /><g
         transform="translate(314.64913,34.768125)"
         id="g440"><text
           id="text444"
           style="font-variant:normal;font-weight:normal;font-size:18px;font-family:'DejaVu Sans';-inkscape-font-specification:DejaVuSans;writing-mode:lr-tb;fill:#000000;fill-opacity:1;fill-rule:nonzero;stroke:none"
           transform="scale(1,-1)"><tspan
             id="tspan442"
             y="0"
             x="0">0</tspan></text>
</g><path
         id="path446"
         style="fill:#000000;fill-opacity:1;fill-rule:nonzero;stroke:#000000;stroke-width:0.80000001;stroke-linecap:butt;stroke-linejoin:round;stroke-miterlimit:10;stroke-dasharray:none;stroke-opacity:1"
         d="m 377.42198,55.44 v -3.5" /><g
         transform="translate(371.69542,34.768125)"
         id="g448"><text
           id="text452"
           style="font-variant:normal;font-weight:normal;font-size:18px;font-family:'DejaVu Sans';-inkscape-font-specification:DejaVuSans;writing-mode:lr-tb;fill:#000000;fill-opacity:1;fill-rule:nonzero;stroke:none"
           transform="scale(1,-1)"><tspan
             id="tspan450"
             y="0"
             x="0">5</tspan></text>
</g><path
         id="path454"
         style="fill:#000000;fill-opacity:1;fill-rule:nonzero;stroke:#000000;stroke-width:0.80000001;stroke-linecap:butt;stroke-linejoin:round;stroke-miterlimit:10;stroke-dasharray:none;stroke-opacity:1"
         d="m 434.46826,55.44 v -3.5" /><g
         transform="translate(423.01513,34.768125)"
         id="g456"><text
           id="text460"
           style="font-variant:normal;font-weight:normal;font-size:18px;font-family:'DejaVu Sans';-inkscape-font-specification:DejaVuSans;writing-mode:lr-tb;fill:#000000;fill-opacity:1;fill-rule:nonzero;stroke:none"
           transform="scale(1,-1)"><tspan
             id="tspan458"
             y="0"
             x="0 11.448">10</tspan></text>
</g><path
         id="path462"
         style="fill:#000000;fill-opacity:1;fill-rule:nonzero;stroke:#000000;stroke-width:0.80000001;stroke-linecap:butt;stroke-linejoin:round;stroke-miterlimit:10;stroke-dasharray:none;stroke-opacity:1"
         d="m 491.51454,55.44 v -3.5" /><g
         transform="translate(480.06141,34.768125)"
         id="g464"><text
           id="text468"
           style="font-variant:normal;font-weight:normal;font-size:18px;font-family:'DejaVu Sans';-inkscape-font-specification:DejaVuSans;writing-mode:lr-tb;fill:#000000;fill-opacity:1;fill-rule:nonzero;stroke:none"
           transform="scale(1,-1)"><tspan
             id="tspan466"
             y="0"
             x="0 11.448">15</tspan></text>
</g><path
         id="path470"
         style="fill:#000000;fill-opacity:1;fill-rule:nonzero;stroke:#000000;stroke-width:0.80000001;stroke-linecap:butt;stroke-linejoin:round;stroke-miterlimit:10;stroke-dasharray:none;stroke-opacity:1"
         d="m 548.56082,55.44 v -3.5" /><g
         transform="translate(537.1077,34.768125)"
         id="g472"><text
           id="text476"
           style="font-variant:normal;font-weight:normal;font-size:18px;font-family:'DejaVu Sans';-inkscape-font-specification:DejaVuSans;writing-mode:lr-tb;fill:#000000;fill-opacity:1;fill-rule:nonzero;stroke:none"
           transform="scale(1,-1)"><tspan
             id="tspan474"
             y="0"
             x="0 11.448">20</tspan></text>
</g><g
         transform="translate(300.20937,13.34625)"
         id="g478"><text
           id="text482"
           style="font-variant:normal;font-weight:normal;font-size:18px;font-family:'DejaVu Sans';-inkscape-font-specification:DejaVuSans;writing-mode:lr-tb;fill:#000000;fill-opacity:1;fill-rule:nonzero;stroke:none"
           transform="scale(1,-1)"><tspan
             id="tspan480"
             y="0"
             x="0 10.026 22.535999 28.26 36.211124 47.281124 56.659126">LR Test</tspan></text>
</g><path
         id="path484"
         style="fill:#000000;fill-opacity:1;fill-rule:nonzero;stroke:#000000;stroke-width:0.80000001;stroke-linecap:butt;stroke-linejoin:round;stroke-miterlimit:10;stroke-dasharray:none;stroke-opacity:1"
         d="M 81,55.44 H 77.5" /><g
         transform="translate(33.921875,48.604062)"
         id="g486"><text
           id="text490"
           style="font-variant:normal;font-weight:normal;font-size:18px;font-family:'DejaVu Sans';-inkscape-font-specification:DejaVuSans;writing-mode:lr-tb;fill:#000000;fill-opacity:1;fill-rule:nonzero;stroke:none"
           transform="scale(1,-1)"><tspan
             id="tspan488"
             y="0"
             x="0 11.448 17.172001 28.620001">0.00</tspan></text>
</g><path
         id="path492"
         style="fill:#000000;fill-opacity:1;fill-rule:nonzero;stroke:#000000;stroke-width:0.80000001;stroke-linecap:butt;stroke-linejoin:round;stroke-miterlimit:10;stroke-dasharray:none;stroke-opacity:1"
         d="M 81,116.13622 H 77.5" /><g
         transform="translate(33.921875,109.30028)"
         id="g494"><text
           id="text498"
           style="font-variant:normal;font-weight:normal;font-size:18px;font-family:'DejaVu Sans';-inkscape-font-specification:DejaVuSans;writing-mode:lr-tb;fill:#000000;fill-opacity:1;fill-rule:nonzero;stroke:none"
           transform="scale(1,-1)"><tspan
             id="tspan496"
             y="0"
             x="0 11.448 17.172001 28.620001">0.02</tspan></text>
</g><path
         id="path500"
         style="fill:#000000;fill-opacity:1;fill-rule:nonzero;stroke:#000000;stroke-width:0.80000001;stroke-linecap:butt;stroke-linejoin:round;stroke-miterlimit:10;stroke-dasharray:none;stroke-opacity:1"
         d="M 81,176.83244 H 77.5" /><g
         transform="translate(33.921875,169.9965)"
         id="g502"><text
           id="text506"
           style="font-variant:normal;font-weight:normal;font-size:18px;font-family:'DejaVu Sans';-inkscape-font-specification:DejaVuSans;writing-mode:lr-tb;fill:#000000;fill-opacity:1;fill-rule:nonzero;stroke:none"
           transform="scale(1,-1)"><tspan
             id="tspan504"
             y="0"
             x="0 11.448 17.172001 28.620001">0.04</tspan></text>
</g><path
         id="path508"
         style="fill:#000000;fill-opacity:1;fill-rule:nonzero;stroke:#000000;stroke-width:0.80000001;stroke-linecap:butt;stroke-linejoin:round;stroke-miterlimit:10;stroke-dasharray:none;stroke-opacity:1"
         d="M 81,237.52865 H 77.5" /><g
         transform="translate(33.921875,230.69272)"
         id="g510"><text
           id="text514"
           style="font-variant:normal;font-weight:normal;font-size:18px;font-family:'DejaVu Sans';-inkscape-font-specification:DejaVuSans;writing-mode:lr-tb;fill:#000000;fill-opacity:1;fill-rule:nonzero;stroke:none"
           transform="scale(1,-1)"><tspan
             id="tspan512"
             y="0"
             x="0 11.448 17.172001 28.620001">0.06</tspan></text>
</g><path
         id="path516"
         style="fill:#000000;fill-opacity:1;fill-rule:nonzero;stroke:#000000;stroke-width:0.80000001;stroke-linecap:butt;stroke-linejoin:round;stroke-miterlimit:10;stroke-dasharray:none;stroke-opacity:1"
         d="M 81,298.22487 H 77.5" /><g
         transform="translate(33.921875,291.38893)"
         id="g518"><text
           id="text522"
           style="font-variant:normal;font-weight:normal;font-size:18px;font-family:'DejaVu Sans';-inkscape-font-specification:DejaVuSans;writing-mode:lr-tb;fill:#000000;fill-opacity:1;fill-rule:nonzero;stroke:none"
           transform="scale(1,-1)"><tspan
             id="tspan520"
             y="0"
             x="0 11.448 17.172001 28.620001">0.08</tspan></text>
</g><path
         id="path524"
         style="fill:#000000;fill-opacity:1;fill-rule:nonzero;stroke:#000000;stroke-width:0.80000001;stroke-linecap:butt;stroke-linejoin:round;stroke-miterlimit:10;stroke-dasharray:none;stroke-opacity:1"
         d="M 81,358.92109 H 77.5" /><g
         transform="translate(33.921875,352.08515)"
         id="g526"><text
           id="text530"
           style="font-variant:normal;font-weight:normal;font-size:18px;font-family:'DejaVu Sans';-inkscape-font-specification:DejaVuSans;writing-mode:lr-tb;fill:#000000;fill-opacity:1;fill-rule:nonzero;stroke:none"
           transform="scale(1,-1)"><tspan
             id="tspan528"
             y="0"
             x="0 11.448 17.172001 28.620001">0.10</tspan></text>
</g><path
         id="path532"
         style="fill:#000000;fill-opacity:1;fill-rule:nonzero;stroke:#000000;stroke-width:0.80000001;stroke-linecap:butt;stroke-linejoin:round;stroke-miterlimit:10;stroke-dasharray:none;stroke-opacity:1"
         d="M 81,419.61731 H 77.5" /><g
         transform="translate(33.921875,412.78137)"
         id="g534"><text
           id="text538"
           style="font-variant:normal;font-weight:normal;font-size:18px;font-family:'DejaVu Sans';-inkscape-font-specification:DejaVuSans;writing-mode:lr-tb;fill:#000000;fill-opacity:1;fill-rule:nonzero;stroke:none"
           transform="scale(1,-1)"><tspan
             id="tspan536"
             y="0"
             x="0 11.448 17.172001 28.620001">0.12</tspan></text>
</g><g
         transform="rotate(90,-94.544687,120.71656)"
         id="g540"><text
           id="text544"
           style="font-variant:normal;font-weight:normal;font-size:18px;font-family:'DejaVu Sans';-inkscape-font-specification:DejaVuSans;writing-mode:lr-tb;fill:#000000;fill-opacity:1;fill-rule:nonzero;stroke:none"
           transform="scale(1,-1)"><tspan
             id="tspan542"
             y="0"
             x="0 13.86 24.93 36.341999 45.720001 50.723999 57.779999">Density</tspan></text>
</g></g><g
       id="g546"><g
         clip-path="url(#clipPath552)"
         id="g548"><path
           id="path554"
           style="fill:none;stroke:#87cefa;stroke-width:1.5;stroke-linecap:square;stroke-linejoin:round;stroke-miterlimit:10;stroke-dasharray:none;stroke-opacity:1"
           d="m 103.82727,65.355032 4.19925,2.450491 3.14944,1.575427 2.88699,1.20047 3.67434,1.269594 4.72416,1.648993 2.09962,0.960948 1.83717,1.066384 1.83718,1.349202 1.57471,1.433086 1.57472,1.731397 1.57472,2.066979 1.57472,2.435146 1.57472,2.829771 1.57472,3.243212 1.83717,4.318578 1.83717,4.890896 2.09963,6.256924 2.36208,7.79669 2.88698,10.37653 10.49813,38.74684 2.36208,7.48887 2.09962,6.00871 2.09963,5.38892 2.09962,4.8128 2.36208,4.83752 2.88698,5.33745 7.34869,13.25816 2.36208,4.8591 2.36208,5.37711 2.36208,5.95596 2.36208,6.54922 2.62453,7.94077 2.88698,9.44771 3.67435,12.86392 6.03642,22.15823 4.98661,17.9594 3.14944,10.54351 2.62453,8.03559 2.36208,6.50784 2.09962,5.13087 1.83717,3.94481 1.83718,3.413 1.57472,2.49154 1.57471,2.0862 1.57472,1.67946 1.31227,1.0895 1.31226,0.80918 1.31227,0.53095 1.31227,0.25525 1.31226,-0.0175 1.31227,-0.28717 1.31226,-0.55324 1.31227,-0.81544 1.31226,-1.07334 1.57472,-1.62166 1.57472,-1.97685 1.57472,-2.32165 1.83717,-3.12899 1.83718,-3.5627 2.09962,-4.57531 2.36208,-5.74936 2.36208,-6.33955 2.62453,-7.67449 2.88698,-9.12378 3.41189,-11.55903 4.19926,-15.08021 13.12265,-47.8482 3.67435,-12.22701 3.67434,-11.47735 4.72416,-13.95302 8.13605,-23.90789 4.4617,-13.94445 12.3353,-39.22883 2.88698,-8.04638 2.36208,-5.965475 2.36208,-5.355922 2.09963,-4.238556 2.09962,-3.759724 2.09962,-3.309713 2.09963,-2.899743 2.09963,-2.536052 2.36207,-2.478023 2.36208,-2.143574 2.62453,-2.059611 2.62453,-1.784046 2.88699,-1.7061 3.14944,-1.614772 3.67434,-1.624479 3.9368,-1.492004 4.19925,-1.355715 1.04981,-0.304011 v 0" /></g></g><g
       id="g556"><g
         clip-path="url(#clipPath562)"
         id="g558"><path
           id="path564"
           style="fill:none;stroke:#fa8072;stroke-width:1.5;stroke-linecap:square;stroke-linejoin:round;stroke-miterlimit:10;stroke-dasharray:none;stroke-opacity:1"
           d="m 272.41367,60.29096 7.20618,2.767852 7.20618,2.691739 4.61196,1.488067 4.03546,1.066799 4.32371,0.899632 6.34144,1.289669 2.30598,0.709788 2.01773,0.858344 1.72948,0.976543 1.72949,1.252959 1.72948,1.577589 1.72949,1.944553 1.72948,2.345414 1.72948,2.769727 1.72949,3.205835 1.72948,3.64182 2.01773,4.784217 2.30598,6.130963 2.30598,6.77165 2.59423,8.2878 3.17072,10.94909 3.45896,12.81787 3.74722,14.79289 4.03546,16.88905 4.61196,20.30755 12.10639,53.91708 3.17072,12.82585 2.88247,10.78776 2.88247,9.90644 2.88247,9.09701 3.45897,10.12025 10.9534,31.38376 7.78268,23.15325 2.01773,5.24877 1.72948,3.94186 1.44124,2.78992 1.44124,2.26481 1.15298,1.39315 1.15299,0.99403 0.86475,0.47249 0.86474,0.23269 0.86474,-0.01 0.86474,-0.25216 0.86474,-0.49226 0.86475,-0.72749 1.15298,-1.32295 1.15299,-1.70438 1.44124,-2.62064 1.44124,-3.0991 1.72948,-4.23767 2.30598,-6.28844 4.03546,-11.82819 4.90021,-14.19124 5.18845,-14.22983 4.32371,-12.08552 3.17072,-9.57532 3.17072,-10.34619 4.03546,-14.01877 7.49443,-26.1556 5.4767,-18.04205 4.61196,-15.41099 3.17072,-11.36448 3.17072,-12.18291 4.61195,-18.73849 4.61196,-18.51487 2.88247,-10.65139 2.30598,-7.74532 2.30598,-6.97809 2.30598,-6.22049 2.30598,-5.53407 2.30598,-4.95662 2.59422,-5.035031 2.88247,-5.096256 3.17072,-5.152165 3.17073,-4.732224 2.88247,-3.904541 2.59423,-3.135167 2.30597,-2.447192 2.30598,-2.108044 2.01773,-1.565844 2.01773,-1.318083 2.30598,-1.231935 2.30598,-0.982455 2.59423,-0.870438 3.17072,-0.825321 4.32371,-0.87808 6.91793,-1.148222 14.41237,-2.170106 v 0" /></g></g><g
       id="g566"><g
         clip-path="url(#clipPath572)"
         id="g568"><path
           id="path574"
           style="fill:none;stroke:#000000;stroke-width:1.5;stroke-linecap:butt;stroke-linejoin:round;stroke-miterlimit:10;stroke-dasharray:5.55, 2.4;stroke-dashoffset:0;stroke-opacity:1"
           d="M 409.14594,55.44 V 443.52" /></g></g><g
       id="g576"><g
         clip-path="url(#clipPath582)"
         id="g578"><path
           id="path584"
           style="fill:none;stroke:#000000;stroke-width:1.5;stroke-linecap:butt;stroke-linejoin:round;stroke-miterlimit:10;stroke-dasharray:5.55, 2.4;stroke-dashoffset:0;stroke-opacity:1"
           d="M 231.60546,55.44 V 443.52" /></g></g><g
       id="g586"><path
         id="path588"
         style="fill:none;stroke:#000000;stroke-width:0.80000001;stroke-linecap:square;stroke-linejoin:miter;stroke-miterlimit:10;stroke-dasharray:none;stroke-opacity:1"
         d="M 81,55.44 V 443.52" /><path
         id="path590"
         style="fill:none;stroke:#000000;stroke-width:0.80000001;stroke-linecap:square;stroke-linejoin:miter;stroke-miterlimit:10;stroke-dasharray:none;stroke-opacity:1"
         d="M 583.2,55.44 V 443.52" /><path
         id="path592"
         style="fill:none;stroke:#000000;stroke-width:0.80000001;stroke-linecap:square;stroke-linejoin:miter;stroke-miterlimit:10;stroke-dasharray:none;stroke-opacity:1"
         d="M 81,55.44 H 583.2" /><path
         id="path594"
         style="fill:none;stroke:#000000;stroke-width:0.80000001;stroke-linecap:square;stroke-linejoin:miter;stroke-miterlimit:10;stroke-dasharray:none;stroke-opacity:1"
         d="M 81,443.52 H 583.2" /><g
         transform="translate(417.13242,419.61731)"
         id="g596"><text
           id="text600"
           style="font-style:italic;font-variant:normal;font-size:12.60000038px;font-family:'DejaVu Sans';-inkscape-font-specification:DejaVuSans-Oblique;writing-mode:lr-tb;fill:#000000;fill-opacity:1;fill-rule:nonzero;stroke:none"
           transform="matrix(1,0,0,-1,0,8.659375)"><tspan
             id="tspan598"
             y="0"
             x="0">m</tspan></text>
<text
           id="text604"
           style="font-variant:normal;font-weight:normal;font-size:12.60000038px;font-family:'DejaVu Sans';-inkscape-font-specification:DejaVuSans;writing-mode:lr-tb;fill:#000000;fill-opacity:1;fill-rule:nonzero;stroke:none"
           transform="matrix(1,0,0,-1,7,-6.3171875)"><tspan
             id="tspan602"
             y="0"
             x="0">2</tspan></text>
<g
           transform="matrix(0.00882,0,0,0.00882,14.577979,13.482813)"
           id="g606"><g
             id="g608"><g
               clip-path="url(#clipPath614)"
               id="g610"><path
                 id="path616"
                 style="fill:#000000;fill-opacity:1;fill-rule:nonzero;stroke:none"
                 d="m 122,374 h 146 l 45,138 46,-138 H 504 L 386,288 432,149 313,235 194,149 240,288 Z" /></g></g></g><g
           id="g618"><path
             id="path620"
             style="fill:#000000;fill-opacity:1;fill-rule:nonzero;stroke:none"
             d="m 0,4.159375 h 22.161973 v 1.125 H 0 Z" /></g></g><g
         transform="translate(232.74638,419.61731)"
         id="g622"><text
           id="text626"
           style="font-style:italic;font-variant:normal;font-size:12.60000038px;font-family:'DejaVu Sans';-inkscape-font-specification:DejaVuSans-Oblique;writing-mode:lr-tb;fill:#000000;fill-opacity:1;fill-rule:nonzero;stroke:none"
           transform="matrix(1,0,0,-1,15.082031,8.659375)"><tspan
             id="tspan624"
             y="0"
             x="0">m</tspan></text>
<text
           id="text630"
           style="font-variant:normal;font-weight:normal;font-size:12.60000038px;font-family:'DejaVu Sans';-inkscape-font-specification:DejaVuSans;writing-mode:lr-tb;fill:#000000;fill-opacity:1;fill-rule:nonzero;stroke:none"
           transform="matrix(1,0,0,-1,22.082031,-6.3171875)"><tspan
             id="tspan628"
             y="0"
             x="0">2</tspan></text>
<g
           transform="matrix(0.018,0,0,0.018,0,0.7765625)"
           id="g632"><g
             id="g634"><g
               clip-path="url(#clipPath640)"
               id="g636"><path
                 id="path642"
                 style="fill:#000000;fill-opacity:1;fill-rule:nonzero;stroke:none"
                 d="M 106,355 H 732 V 272 H 106 Z" /></g></g></g><g
           transform="matrix(0.00882,0,0,0.00882,29.66001,13.482813)"
           id="g644"><g
             id="g646"><g
               clip-path="url(#clipPath652)"
               id="g648"><path
                 id="path654"
                 style="fill:#000000;fill-opacity:1;fill-rule:nonzero;stroke:none"
                 d="m 122,374 h 146 l 45,138 46,-138 H 504 L 386,288 432,149 313,235 194,149 240,288 Z" /></g></g></g><g
           id="g656"><path
             id="path658"
             style="fill:#000000;fill-opacity:1;fill-rule:nonzero;stroke:none"
             d="m 15.082031,4.159375 h 22.161973 v 1.125 H 15.082031 Z" /></g></g><path
         id="path660"
         style="fill:#ffffff;fill-opacity:0.8;fill-rule:nonzero;stroke:#cccccc;stroke-width:1;stroke-linecap:butt;stroke-linejoin:miter;stroke-miterlimit:10;stroke-dasharray:none;stroke-opacity:0.8"
         d="M 480.35937,376.27625 H 570.6 c 2.4,0 3.6,1.2 3.6,3.6 V 430.92 c 0,2.4 -1.2,3.6 -3.6,3.6 h -90.24063 c -2.4,0 -3.6,-1.2 -3.6,-3.6 v -51.04375 c 0,-2.4 1.2,-3.6 3.6,-3.6 z" /><path
         id="path662"
         style="fill:#0000ff;fill-opacity:1;fill-rule:nonzero;stroke:none"
         d="m 483.95937,413.64812 h 36.00001 v 12.6 h -36.00001 z" /><g
         transform="translate(534.35937,413.64812)"
         id="g664"><text
           id="text668"
           style="font-variant:normal;font-weight:normal;font-size:18px;font-family:'DejaVu Sans';-inkscape-font-specification:DejaVuSans;writing-mode:lr-tb;fill:#000000;fill-opacity:1;fill-rule:nonzero;stroke:none"
           transform="scale(1,-1)"><tspan
             id="tspan666"
             y="0"
             x="0 14.166 25.577999">Out</tspan></text>
</g><path
         id="path670"
         style="fill:#ff0000;fill-opacity:1;fill-rule:nonzero;stroke:none"
         d="m 483.95937,387.22625 h 36.00001 v 12.6 h -36.00001 z" /><g
         transform="translate(534.35937,387.22625)"
         id="g672"><text
           id="text676"
           style="font-variant:normal;font-weight:normal;font-size:18px;font-family:'DejaVu Sans';-inkscape-font-specification:DejaVuSans;writing-mode:lr-tb;fill:#000000;fill-opacity:1;fill-rule:nonzero;stroke:none"
           transform="scale(1,-1)"><tspan
             id="tspan674"
             y="0"
             x="0 5.3099999">In</tspan></text>
</g></g></g></svg>