<?xml version="1.0" encoding="UTF-8" standalone="no"?>
<svg
   xmlns:dc="http://purl.org/dc/elements/1.1/"
   xmlns:cc="http://creativecommons.org/ns#"
   xmlns:rdf="http://www.w3.org/1999/02/22-rdf-syntax-ns#"
   xmlns:svg="http://www.w3.org/2000/svg"
   xmlns="http://www.w3.org/2000/svg"
   viewBox="0 0 864 672"
   height="672"
   width="864"
   xml:space="preserve"
   id="svg2"
   version="1.1"><metadata
     id="metadata8"><rdf:RDF><cc:Work
         rdf:about=""><dc:format>image/svg+xml</dc:format><dc:type
           rdf:resource="http://purl.org/dc/dcmitype/StillImage" /></cc:Work></rdf:RDF></metadata><defs
     id="defs6"><clipPath
       id="clipPath36"
       clipPathUnits="userSpaceOnUse"><path
         id="path34"
         d="M -1021,-463 H 1794 V 1233 H -1021 Z" /></clipPath><clipPath
       id="clipPath60"
       clipPathUnits="userSpaceOnUse"><path
         id="path58"
         d="M -1021,-463 H 1794 V 1233 H -1021 Z" /></clipPath><clipPath
       id="clipPath178"
       clipPathUnits="userSpaceOnUse"><path
         id="path176"
         d="M 81,55.44 H 583.2 V 443.52 H 81 Z" /></clipPath><clipPath
       id="clipPath188"
       clipPathUnits="userSpaceOnUse"><path
         id="path186"
         d="M 81,55.44 H 583.2 V 443.52 H 81 Z" /></clipPath><clipPath
       id="clipPath198"
       clipPathUnits="userSpaceOnUse"><path
         id="path196"
         d="M 81,55.44 H 583.2 V 443.52 H 81 Z" /></clipPath><clipPath
       id="clipPath208"
       clipPathUnits="userSpaceOnUse"><path
         id="path206"
         d="M 81,55.44 H 583.2 V 443.52 H 81 Z" /></clipPath><clipPath
       id="clipPath218"
       clipPathUnits="userSpaceOnUse"><path
         id="path216"
         d="M 81,55.44 H 583.2 V 443.52 H 81 Z" /></clipPath><clipPath
       id="clipPath228"
       clipPathUnits="userSpaceOnUse"><path
         id="path226"
         d="M 81,55.44 H 583.2 V 443.52 H 81 Z" /></clipPath><clipPath
       id="clipPath260"
       clipPathUnits="userSpaceOnUse"><path
         id="path258"
         d="M -1016,-351 H 1660 V 1068 H -1016 Z" /></clipPath><clipPath
       id="clipPath284"
       clipPathUnits="userSpaceOnUse"><path
         id="path282"
         d="M -1016,-351 H 1660 V 1068 H -1016 Z" /></clipPath><clipPath
       id="clipPath296"
       clipPathUnits="userSpaceOnUse"><path
         id="path294"
         d="M -1021,-463 H 1794 V 1233 H -1021 Z" /></clipPath><clipPath
       id="clipPath316"
       clipPathUnits="userSpaceOnUse"><path
         id="path314"
         d="M -1016,-351 H 1660 V 1068 H -1016 Z" /></clipPath><clipPath
       id="clipPath340"
       clipPathUnits="userSpaceOnUse"><path
         id="path338"
         d="M -1016,-351 H 1660 V 1068 H -1016 Z" /></clipPath><clipPath
       id="clipPath352"
       clipPathUnits="userSpaceOnUse"><path
         id="path350"
         d="M -1021,-463 H 1794 V 1233 H -1021 Z" /></clipPath><clipPath
       id="clipPath372"
       clipPathUnits="userSpaceOnUse"><path
         id="path370"
         d="M -1016,-351 H 1660 V 1068 H -1016 Z" /></clipPath><clipPath
       id="clipPath396"
       clipPathUnits="userSpaceOnUse"><path
         id="path394"
         d="M -1016,-351 H 1660 V 1068 H -1016 Z" /></clipPath><clipPath
       id="clipPath408"
       clipPathUnits="userSpaceOnUse"><path
         id="path406"
         d="M -1021,-463 H 1794 V 1233 H -1021 Z" /></clipPath></defs><g
     transform="matrix(1.3333333,0,0,-1.3333333,0,672)"
     id="g10"><path
       id="path12"
       style="fill:#ffffff;fill-opacity:1;fill-rule:nonzero;stroke:none"
       d="M 0,0 H 648 V 504 H 0 Z" /><path
       id="path14"
       style="fill:#ffffff;fill-opacity:1;fill-rule:nonzero;stroke:none"
       d="M 81,55.44 H 583.2 V 443.52 H 81 Z" /><path
       id="path16"
       style="fill:#000000;fill-opacity:1;fill-rule:nonzero;stroke:#000000;stroke-width:0.80000001;stroke-linecap:butt;stroke-linejoin:round;stroke-miterlimit:10;stroke-dasharray:none;stroke-opacity:1"
       d="m 103.82727,55.44 v -3.5" /><g
       transform="translate(82.327273,34.19)"
       id="g18"><text
         id="text22"
         style="font-variant:normal;font-weight:normal;font-size:18px;font-family:'DejaVu Sans';-inkscape-font-specification:DejaVuSans;writing-mode:lr-tb;fill:#000000;fill-opacity:1;fill-rule:nonzero;stroke:none"
         transform="matrix(1,0,0,-1,0,0.7578125)"><tspan
           id="tspan20"
           y="0"
           x="0 11.452148">10</tspan></text>
<text
         id="text26"
         style="font-variant:normal;font-weight:normal;font-size:12.60000038px;font-family:'DejaVu Sans';-inkscape-font-specification:DejaVuSans;writing-mode:lr-tb;fill:#000000;fill-opacity:1;fill-rule:nonzero;stroke:none"
         transform="matrix(1,0,0,-1,33.633984,7.6484375)"><tspan
           id="tspan24"
           y="0"
           x="0">2</tspan></text>
<g
         transform="matrix(0.0126,0,0,0.0126,23.076562,7.6484375)"
         id="g28"><g
           id="g30"><g
             clip-path="url(#clipPath36)"
             id="g32"><path
               id="path38"
               style="fill:#000000;fill-opacity:1;fill-rule:nonzero;stroke:none"
               d="M 106,355 H 732 V 272 H 106 Z" /></g></g></g></g><path
       id="path40"
       style="fill:#000000;fill-opacity:1;fill-rule:nonzero;stroke:#000000;stroke-width:0.80000001;stroke-linecap:butt;stroke-linejoin:round;stroke-miterlimit:10;stroke-dasharray:none;stroke-opacity:1"
       d="m 332.1,55.44 v -3.5" /><g
       transform="translate(310.6,34.19)"
       id="g42"><text
         id="text46"
         style="font-variant:normal;font-weight:normal;font-size:18px;font-family:'DejaVu Sans';-inkscape-font-specification:DejaVuSans;writing-mode:lr-tb;fill:#000000;fill-opacity:1;fill-rule:nonzero;stroke:none"
         transform="matrix(1,0,0,-1,0,0.921875)"><tspan
           id="tspan44"
           y="0"
           x="0 11.452148">10</tspan></text>
<text
         id="text50"
         style="font-variant:normal;font-weight:normal;font-size:12.60000038px;font-family:'DejaVu Sans';-inkscape-font-specification:DejaVuSans;writing-mode:lr-tb;fill:#000000;fill-opacity:1;fill-rule:nonzero;stroke:none"
         transform="matrix(1,0,0,-1,33.633984,7.8125)"><tspan
           id="tspan48"
           y="0"
           x="0">1</tspan></text>
<g
         transform="matrix(0.0126,0,0,0.0126,23.076562,7.8125)"
         id="g52"><g
           id="g54"><g
             clip-path="url(#clipPath60)"
             id="g56"><path
               id="path62"
               style="fill:#000000;fill-opacity:1;fill-rule:nonzero;stroke:none"
               d="M 106,355 H 732 V 272 H 106 Z" /></g></g></g></g><path
       id="path64"
       style="fill:#000000;fill-opacity:1;fill-rule:nonzero;stroke:#000000;stroke-width:0.80000001;stroke-linecap:butt;stroke-linejoin:round;stroke-miterlimit:10;stroke-dasharray:none;stroke-opacity:1"
       d="m 560.37273,55.44 v -3.5" /><g
       transform="translate(544.37273,34.19)"
       id="g66"><text
         id="text70"
         style="font-variant:normal;font-weight:normal;font-size:18px;font-family:'DejaVu Sans';-inkscape-font-specification:DejaVuSans;writing-mode:lr-tb;fill:#000000;fill-opacity:1;fill-rule:nonzero;stroke:none"
         transform="matrix(1,0,0,-1,0,0.7578125)"><tspan
           id="tspan68"
           y="0"
           x="0 11.452148">10</tspan></text>
<text
         id="text74"
         style="font-variant:normal;font-weight:normal;font-size:12.60000038px;font-family:'DejaVu Sans';-inkscape-font-specification:DejaVuSans;writing-mode:lr-tb;fill:#000000;fill-opacity:1;fill-rule:nonzero;stroke:none"
         transform="matrix(1,0,0,-1,23.076563,7.6484375)"><tspan
           id="tspan72"
           y="0"
           x="0">0</tspan></text>
</g><path
       id="path76"
       style="fill:#000000;fill-opacity:1;fill-rule:nonzero;stroke:#000000;stroke-width:0.60000002;stroke-linecap:butt;stroke-linejoin:round;stroke-miterlimit:10;stroke-dasharray:none;stroke-opacity:1"
       d="m 81.70536,55.44 v -2" /><path
       id="path78"
       style="fill:#000000;fill-opacity:1;fill-rule:nonzero;stroke:#000000;stroke-width:0.60000002;stroke-linecap:butt;stroke-linejoin:round;stroke-miterlimit:10;stroke-dasharray:none;stroke-opacity:1"
       d="m 93.382086,55.44 v -2" /><path
       id="path80"
       style="fill:#000000;fill-opacity:1;fill-rule:nonzero;stroke:#000000;stroke-width:0.60000002;stroke-linecap:butt;stroke-linejoin:round;stroke-miterlimit:10;stroke-dasharray:none;stroke-opacity:1"
       d="m 172.54421,55.44 v -2" /><path
       id="path82"
       style="fill:#000000;fill-opacity:1;fill-rule:nonzero;stroke:#000000;stroke-width:0.60000002;stroke-linecap:butt;stroke-linejoin:round;stroke-miterlimit:10;stroke-dasharray:none;stroke-opacity:1"
       d="m 212.74104,55.44 v -2" /><path
       id="path84"
       style="fill:#000000;fill-opacity:1;fill-rule:nonzero;stroke:#000000;stroke-width:0.60000002;stroke-linecap:butt;stroke-linejoin:round;stroke-miterlimit:10;stroke-dasharray:none;stroke-opacity:1"
       d="m 241.26115,55.44 v -2" /><path
       id="path86"
       style="fill:#000000;fill-opacity:1;fill-rule:nonzero;stroke:#000000;stroke-width:0.60000002;stroke-linecap:butt;stroke-linejoin:round;stroke-miterlimit:10;stroke-dasharray:none;stroke-opacity:1"
       d="m 263.38306,55.44 v -2" /><path
       id="path88"
       style="fill:#000000;fill-opacity:1;fill-rule:nonzero;stroke:#000000;stroke-width:0.60000002;stroke-linecap:butt;stroke-linejoin:round;stroke-miterlimit:10;stroke-dasharray:none;stroke-opacity:1"
       d="m 281.45798,55.44 v -2" /><path
       id="path90"
       style="fill:#000000;fill-opacity:1;fill-rule:nonzero;stroke:#000000;stroke-width:0.60000002;stroke-linecap:butt;stroke-linejoin:round;stroke-miterlimit:10;stroke-dasharray:none;stroke-opacity:1"
       d="m 296.74011,55.44 v -2" /><path
       id="path92"
       style="fill:#000000;fill-opacity:1;fill-rule:nonzero;stroke:#000000;stroke-width:0.60000002;stroke-linecap:butt;stroke-linejoin:round;stroke-miterlimit:10;stroke-dasharray:none;stroke-opacity:1"
       d="m 309.97809,55.44 v -2" /><path
       id="path94"
       style="fill:#000000;fill-opacity:1;fill-rule:nonzero;stroke:#000000;stroke-width:0.60000002;stroke-linecap:butt;stroke-linejoin:round;stroke-miterlimit:10;stroke-dasharray:none;stroke-opacity:1"
       d="m 321.65481,55.44 v -2" /><path
       id="path96"
       style="fill:#000000;fill-opacity:1;fill-rule:nonzero;stroke:#000000;stroke-width:0.60000002;stroke-linecap:butt;stroke-linejoin:round;stroke-miterlimit:10;stroke-dasharray:none;stroke-opacity:1"
       d="m 400.81694,55.44 v -2" /><path
       id="path98"
       style="fill:#000000;fill-opacity:1;fill-rule:nonzero;stroke:#000000;stroke-width:0.60000002;stroke-linecap:butt;stroke-linejoin:round;stroke-miterlimit:10;stroke-dasharray:none;stroke-opacity:1"
       d="m 441.01377,55.44 v -2" /><path
       id="path100"
       style="fill:#000000;fill-opacity:1;fill-rule:nonzero;stroke:#000000;stroke-width:0.60000002;stroke-linecap:butt;stroke-linejoin:round;stroke-miterlimit:10;stroke-dasharray:none;stroke-opacity:1"
       d="m 469.53388,55.44 v -2" /><path
       id="path102"
       style="fill:#000000;fill-opacity:1;fill-rule:nonzero;stroke:#000000;stroke-width:0.60000002;stroke-linecap:butt;stroke-linejoin:round;stroke-miterlimit:10;stroke-dasharray:none;stroke-opacity:1"
       d="m 491.65579,55.44 v -2" /><path
       id="path104"
       style="fill:#000000;fill-opacity:1;fill-rule:nonzero;stroke:#000000;stroke-width:0.60000002;stroke-linecap:butt;stroke-linejoin:round;stroke-miterlimit:10;stroke-dasharray:none;stroke-opacity:1"
       d="m 509.73071,55.44 v -2" /><path
       id="path106"
       style="fill:#000000;fill-opacity:1;fill-rule:nonzero;stroke:#000000;stroke-width:0.60000002;stroke-linecap:butt;stroke-linejoin:round;stroke-miterlimit:10;stroke-dasharray:none;stroke-opacity:1"
       d="m 525.01283,55.44 v -2" /><path
       id="path108"
       style="fill:#000000;fill-opacity:1;fill-rule:nonzero;stroke:#000000;stroke-width:0.60000002;stroke-linecap:butt;stroke-linejoin:round;stroke-miterlimit:10;stroke-dasharray:none;stroke-opacity:1"
       d="m 538.25081,55.44 v -2" /><path
       id="path110"
       style="fill:#000000;fill-opacity:1;fill-rule:nonzero;stroke:#000000;stroke-width:0.60000002;stroke-linecap:butt;stroke-linejoin:round;stroke-miterlimit:10;stroke-dasharray:none;stroke-opacity:1"
       d="m 549.92754,55.44 v -2" /><g
       transform="translate(224.79531,12.768125)"
       id="g112"><text
         id="text116"
         style="font-variant:normal;font-weight:normal;font-size:18px;font-family:'DejaVu Sans';-inkscape-font-specification:DejaVuSans;writing-mode:lr-tb;fill:#000000;fill-opacity:1;fill-rule:nonzero;stroke:none"
         transform="scale(1,-1)"><tspan
           id="tspan114"
           y="0"
           x="0 8.7093754 19.743376 24.747375 34.125374 45.195374 50.919376 61.132751 72.14875 81.526749 86.530746 93.586746 98.590752 109.24675 120.31675 126.04075 138.16013 149.19412 156.25012 167.32013 173.04413 180.06412 185.06813 196.08412 207.51413">False Positive Rate (log)</tspan></text>
</g><path
       id="path118"
       style="fill:#000000;fill-opacity:1;fill-rule:nonzero;stroke:#000000;stroke-width:0.80000001;stroke-linecap:butt;stroke-linejoin:round;stroke-miterlimit:10;stroke-dasharray:none;stroke-opacity:1"
       d="M 81,73.08 H 77.5" /><g
       transform="translate(45.375,66.244063)"
       id="g120"><text
         id="text124"
         style="font-variant:normal;font-weight:normal;font-size:18px;font-family:'DejaVu Sans';-inkscape-font-specification:DejaVuSans;writing-mode:lr-tb;fill:#000000;fill-opacity:1;fill-rule:nonzero;stroke:none"
         transform="scale(1,-1)"><tspan
           id="tspan122"
           y="0"
           x="0 11.448 17.172001">0.0</tspan></text>
</g><path
       id="path126"
       style="fill:#000000;fill-opacity:1;fill-rule:nonzero;stroke:#000000;stroke-width:0.80000001;stroke-linecap:butt;stroke-linejoin:round;stroke-miterlimit:10;stroke-dasharray:none;stroke-opacity:1"
       d="M 81,143.64 H 77.5" /><g
       transform="translate(45.375,136.80406)"
       id="g128"><text
         id="text132"
         style="font-variant:normal;font-weight:normal;font-size:18px;font-family:'DejaVu Sans';-inkscape-font-specification:DejaVuSans;writing-mode:lr-tb;fill:#000000;fill-opacity:1;fill-rule:nonzero;stroke:none"
         transform="scale(1,-1)"><tspan
           id="tspan130"
           y="0"
           x="0 11.448 17.172001">0.2</tspan></text>
</g><path
       id="path134"
       style="fill:#000000;fill-opacity:1;fill-rule:nonzero;stroke:#000000;stroke-width:0.80000001;stroke-linecap:butt;stroke-linejoin:round;stroke-miterlimit:10;stroke-dasharray:none;stroke-opacity:1"
       d="M 81,214.2 H 77.5" /><g
       transform="translate(45.375,207.36406)"
       id="g136"><text
         id="text140"
         style="font-variant:normal;font-weight:normal;font-size:18px;font-family:'DejaVu Sans';-inkscape-font-specification:DejaVuSans;writing-mode:lr-tb;fill:#000000;fill-opacity:1;fill-rule:nonzero;stroke:none"
         transform="scale(1,-1)"><tspan
           id="tspan138"
           y="0"
           x="0 11.448 17.172001">0.4</tspan></text>
</g><path
       id="path142"
       style="fill:#000000;fill-opacity:1;fill-rule:nonzero;stroke:#000000;stroke-width:0.80000001;stroke-linecap:butt;stroke-linejoin:round;stroke-miterlimit:10;stroke-dasharray:none;stroke-opacity:1"
       d="M 81,284.76 H 77.5" /><g
       transform="translate(45.375,277.92406)"
       id="g144"><text
         id="text148"
         style="font-variant:normal;font-weight:normal;font-size:18px;font-family:'DejaVu Sans';-inkscape-font-specification:DejaVuSans;writing-mode:lr-tb;fill:#000000;fill-opacity:1;fill-rule:nonzero;stroke:none"
         transform="scale(1,-1)"><tspan
           id="tspan146"
           y="0"
           x="0 11.448 17.172001">0.6</tspan></text>
</g><path
       id="path150"
       style="fill:#000000;fill-opacity:1;fill-rule:nonzero;stroke:#000000;stroke-width:0.80000001;stroke-linecap:butt;stroke-linejoin:round;stroke-miterlimit:10;stroke-dasharray:none;stroke-opacity:1"
       d="M 81,355.32 H 77.5" /><g
       transform="translate(45.375,348.48406)"
       id="g152"><text
         id="text156"
         style="font-variant:normal;font-weight:normal;font-size:18px;font-family:'DejaVu Sans';-inkscape-font-specification:DejaVuSans;writing-mode:lr-tb;fill:#000000;fill-opacity:1;fill-rule:nonzero;stroke:none"
         transform="scale(1,-1)"><tspan
           id="tspan154"
           y="0"
           x="0 11.448 17.172001">0.8</tspan></text>
</g><path
       id="path158"
       style="fill:#000000;fill-opacity:1;fill-rule:nonzero;stroke:#000000;stroke-width:0.80000001;stroke-linecap:butt;stroke-linejoin:round;stroke-miterlimit:10;stroke-dasharray:none;stroke-opacity:1"
       d="M 81,425.88 H 77.5" /><g
       transform="translate(45.375,419.04406)"
       id="g160"><text
         id="text164"
         style="font-variant:normal;font-weight:normal;font-size:18px;font-family:'DejaVu Sans';-inkscape-font-specification:DejaVuSans;writing-mode:lr-tb;fill:#000000;fill-opacity:1;fill-rule:nonzero;stroke:none"
         transform="scale(1,-1)"><tspan
           id="tspan162"
           y="0"
           x="0 11.448 17.172001">1.0</tspan></text>
</g><g
       transform="rotate(90,-92.314219,129.93922)"
       id="g166"><text
         id="text170"
         style="font-variant:normal;font-weight:normal;font-size:18px;font-family:'DejaVu Sans';-inkscape-font-specification:DejaVuSans;writing-mode:lr-tb;fill:#000000;fill-opacity:1;fill-rule:nonzero;stroke:none"
         transform="scale(1,-1)"><tspan
           id="tspan168"
           y="0"
           x="0 10.213375 21.229376 35.953377 47.023376">Power</tspan></text>
</g><g
       id="g172"><g
         clip-path="url(#clipPath178)"
         id="g174"><path
           id="path180"
           style="fill:none;stroke:#ff0000;stroke-width:1.5;stroke-linecap:square;stroke-linejoin:round;stroke-miterlimit:10;stroke-dasharray:none;stroke-opacity:1"
           d="m -1,143.64 h 173.54421 v 3.528 h 108.91377 v 10.584 h 15.28213 v 3.528 h 61.37005 v 7.056 h 7.34688 v 3.528 h 13.23798 v 3.528 h 6.01018 v 14.112 h 5.66655 v 7.056 h 10.44519 v 3.528 h 4.83694 v 28.224 h 4.61188 v 3.528 h 8.6261 v 3.528 h 37.40404 v 7.056 h 5.50906 v 10.584 h 2.64382 v 3.528 h 2.57515 v 10.584 h 2.50995 v 7.056 h 2.44796 v 14.112 h 2.38897 v 10.584 h 17.28498 v 3.528 h 3.88825 v 10.584 h 1.88839 v 3.528 h 3.67218 v 3.528 h 1.78631 v 3.528 h 1.7547 v 3.528 h 1.72417 v 3.528 h 8.19786 v 3.528 h 1.56125 v 3.528 h 7.45747 v 3.528 h 1.42646 v 3.528 h 1.40623 v 7.056 h 2.754 v 3.528 h 3.99266 v 10.584 h 1.29594 v 10.584 h 1.27921 v 10.584 h 9.67964 v 7.056 h 3.39934 v 3.528 h 1.10769 v 10.584 h 3.2507 v 7.056 h 3.14749 v 7.056 h 2.04415 v 3.528 h 2.00285 v 0" /></g></g><g
       id="g182"><g
         clip-path="url(#clipPath188)"
         id="g184"><path
           id="path190"
           style="fill:none;stroke:#ff0000;stroke-width:1.5;stroke-linecap:butt;stroke-linejoin:round;stroke-miterlimit:10;stroke-dasharray:5.55, 2.4;stroke-dashoffset:0;stroke-opacity:1"
           d="m -1,99.205091 104.82727,0.01203 68.71694,16.308979 v 0 l 40.19683,13.48712 28.52011,11.82216 22.12191,10.6632 18.07492,9.78556 v 0 l 15.28213,9.08561 v 0 l 13.23798,8.50729 11.67672,8.01704 10.44519,7.59326 9.44882,7.22123 8.6261,6.89056 7.93524,6.59361 v 0 l 7.34688,6.32463 6.83979,6.0792 12.40837,11.49949 v 0 l 11.02664,10.72518 9.92204,10.05043 v 0 l 9.01872,9.45411 8.26625,8.92102 11.23513,12.49305 10.09049,11.54905 12.03143,14.11728 v 0 l 15.68594,18.82171 v 0 l 32.66378,39.3813 v 0 l 9.92203,11.50218 v 0 l 7.57143,8.4308 7.03398,7.45289 v 0 l 5.2886,5.2904 v 0 l 5.02069,4.70999 4.77864,4.13507 3.43865,2.72006 3.32335,2.38202 3.21556,2.02117 2.08718,1.1245 v 0 l 2.04415,0.91158 v 0 l 2.00285,0.59015 v 0" /></g></g><g
       id="g192"><g
         clip-path="url(#clipPath198)"
         id="g194"><path
           id="path200"
           style="fill:none;stroke:#008000;stroke-width:1.5;stroke-linecap:square;stroke-linejoin:round;stroke-miterlimit:10;stroke-dasharray:none;stroke-opacity:1"
           d="m -1,253.008 h 104.82727 v 3.528 h 68.71694 v 3.528 h 90.83885 v 14.112 h 46.59503 v 7.056 h 11.67672 v 3.528 h 28.52011 v 3.528 h 15.28212 v 3.528 h 78.80743 v 3.528 h 9.15767 v 3.528 h 2.87376 v 3.528 h 2.79279 v 3.528 h 2.71627 v 3.528 h 2.64382 v 3.528 h 7.53306 v 3.528 h 9.22876 v 3.528 h 2.17894 v 3.528 h 8.26625 v 3.528 h 1.96318 v 10.584 h 1.92507 v 3.528 h 9.10158 v 3.528 h 1.72417 v 14.112 h 1.6947 v 3.528 h 4.91692 v 3.528 h 10.60496 v 10.584 h 1.42646 v 3.528 h 2.7928 v 3.528 h 4.04699 v 3.528 h 2.60904 v 3.528 h 1.27921 v 3.528 h 2.50994 v 7.056 h 10.56904 v 7.056 h 4.35839 v 7.056 h 1.06031 v 3.528 h 1.04908 v 3.528 h 5.0851 v 3.528 0" /></g></g><g
       id="g202"><g
         clip-path="url(#clipPath208)"
         id="g204"><path
           id="path210"
           style="fill:none;stroke:#008000;stroke-width:1.5;stroke-linecap:butt;stroke-linejoin:round;stroke-miterlimit:10;stroke-dasharray:5.55, 2.4;stroke-dashoffset:0;stroke-opacity:1"
           d="m -1,200.10451 104.82727,0.0585 v 0 l 68.71694,37.32701 v 0 l 40.19683,24.31259 28.52011,18.08746 40.19683,26.19568 40.19683,26.26716 v 0 l 19.89401,12.71292 16.56134,10.29812 14.18667,8.54248 12.40837,7.21137 11.02664,6.17 9.92204,5.33526 9.01872,4.65305 8.26625,4.08655 11.23513,5.25891 10.09049,4.41127 v 0 l 9.15767,3.73043 v 0 l 8.38282,3.17454 v 0 l 7.72892,2.71448 7.16969,2.32943 8.81804,2.60837 8.09736,2.13958 v 0 l 7.48564,1.75596 6.95988,1.43901 v 0 l 8.06441,1.43273 7.45747,1.10107 v 0 l 8.26625,0.97179 v 0 l 7.62973,0.6697 8.21729,0.48556 8.62609,0.25928 4.047,0.0353 v 0" /></g></g><g
       id="g212"><g
         clip-path="url(#clipPath218)"
         id="g214"><path
           id="path220"
           style="fill:none;stroke:#0000ff;stroke-width:1.5;stroke-linecap:square;stroke-linejoin:round;stroke-miterlimit:10;stroke-dasharray:none;stroke-opacity:1"
           d="m -1,274.176 h 104.82727 v 17.64 h 68.71694 v 38.808 h 40.19683 v 7.056 h 28.52011 v 31.752 h 55.47896 v 3.528 h 13.23798 v 3.528 h 11.67672 v 3.528 h 36.45535 v 24.696 h 7.34688 v 3.528 h 19.24816 v 7.056 h 16.11174 v 3.528 h 49.64565 v 7.056 h 109.91014 v 0" /></g></g><g
       id="g222"><g
         clip-path="url(#clipPath228)"
         id="g224"><path
           id="path230"
           style="fill:none;stroke:#0000ff;stroke-width:1.5;stroke-linecap:butt;stroke-linejoin:round;stroke-miterlimit:10;stroke-dasharray:5.55, 2.4;stroke-dashoffset:0;stroke-opacity:1"
           d="m -1,311.58073 104.82727,0.10979 v 0 l 68.71694,32.10218 v 0 l 40.19683,17.43449 v 0 l 28.52011,11.46083 v 0 l 22.12191,8.25978 18.07492,6.29092 15.28213,4.97289 v 0 l 13.23798,4.038 11.67672,3.34634 v 0 l 10.44519,2.81789 9.44882,2.40374 16.56134,3.87523 v 0 l 14.18667,2.97455 12.40837,2.34061 v 0 l 11.02664,1.87716 14.53392,2.18751 12.67309,1.64814 11.23513,1.2663 13.23798,1.2676 14.393,1.11906 14.89861,0.89712 14.95222,0.66146 16.4087,0.4889 18.35457,0.3095 22.40079,0.13858 11.55288,0.0107 v 0" /></g></g><g
       id="g232"><path
         id="path234"
         style="fill:none;stroke:#000000;stroke-width:0.80000001;stroke-linecap:square;stroke-linejoin:miter;stroke-miterlimit:10;stroke-dasharray:none;stroke-opacity:1"
         d="M 81,55.44 V 443.52" /><path
         id="path236"
         style="fill:none;stroke:#000000;stroke-width:0.80000001;stroke-linecap:square;stroke-linejoin:miter;stroke-miterlimit:10;stroke-dasharray:none;stroke-opacity:1"
         d="M 583.2,55.44 V 443.52" /><path
         id="path238"
         style="fill:none;stroke:#000000;stroke-width:0.80000001;stroke-linecap:square;stroke-linejoin:miter;stroke-miterlimit:10;stroke-dasharray:none;stroke-opacity:1"
         d="M 81,55.44 H 583.2" /><path
         id="path240"
         style="fill:none;stroke:#000000;stroke-width:0.80000001;stroke-linecap:square;stroke-linejoin:miter;stroke-miterlimit:10;stroke-dasharray:none;stroke-opacity:1"
         d="M 81,443.52 H 583.2" /><path
         id="path242"
         style="fill:#ffffff;fill-opacity:0.8;fill-rule:nonzero;stroke:#cccccc;stroke-width:1;stroke-linecap:butt;stroke-linejoin:miter;stroke-miterlimit:10;stroke-dasharray:none;stroke-opacity:0.8"
         d="m 397,64.44 h 173.6 c 2.4,0 3.6,1.2 3.6,3.6 v 160.2 c 0,2.4 -1.2,3.6 -3.6,3.6 H 397 c -2.4,0 -3.6,-1.2 -3.6,-3.6 V 68.04 c 0,-2.4 1.2,-3.6 3.6,-3.6 z" /><path
         id="path244"
         style="fill:none;stroke:#ff0000;stroke-width:1.5;stroke-linecap:square;stroke-linejoin:round;stroke-miterlimit:10;stroke-dasharray:none;stroke-opacity:1"
         d="m 400.6,216.94 h 18 18" /><g
         transform="translate(451,210.64)"
         id="g246"><text
           id="text250"
           style="font-variant:normal;font-weight:normal;font-size:18px;font-family:'DejaVu Sans';-inkscape-font-specification:DejaVuSans;writing-mode:lr-tb;fill:#000000;fill-opacity:1;fill-rule:nonzero;stroke:none"
           transform="matrix(1,0,0,-1,17.147461,0.640625)"><tspan
             id="tspan248"
             y="0"
             x="0 15.082031 26.525391 37.977539 43.699219 55.151367">= 0.10</tspan></text>
<g
           transform="matrix(0.018,0,0,0.018,0,0.640625)"
           id="g252"><g
             id="g254"><g
               clip-path="url(#clipPath260)"
               id="g256"><path
                 id="path262"
                 style="fill:#000000;fill-opacity:1;fill-rule:nonzero;stroke:none"
                 d="m 188,449 c 26,33 66,64 122,94 21,11 61,17 121,17 66,0 114,-27 146,-79 31,-53 38,-122 22,-208 C 582,187 548,117 496,65 444,13 385,-13 319,-13 c -40,0 -73,8 -99,23 -26,15 -45,39 -57,72 L 106,-207 H 16 l 93,475 c 14,75 41,135 79,181 z M 506,273 c 12,66 9,118 -11,156 -20,37 -54,56 -101,56 -48,0 -89,-19 -123,-56 -35,-38 -59,-90 -71,-156 -13,-66 -10,-118 10,-156 20,-38 53,-56 101,-56 48,0 89,18 123,56 34,38 58,90 72,156 z" /></g></g></g></g><path
         id="path264"
         style="fill:none;stroke:#ff0000;stroke-width:1.5;stroke-linecap:butt;stroke-linejoin:round;stroke-miterlimit:10;stroke-dasharray:5.55, 2.4;stroke-dashoffset:0;stroke-opacity:1"
         d="m 400.6,189.94 h 18 18" /><g
         transform="translate(451,183.64)"
         id="g266"><text
           id="text270"
           style="font-style:italic;font-variant:normal;font-size:18px;font-family:'DejaVu Sans';-inkscape-font-specification:DejaVuSans-Oblique;writing-mode:lr-tb;fill:#000000;fill-opacity:1;fill-rule:nonzero;stroke:none"
           transform="matrix(1,0,0,-1,17.270449,0.640625)"><tspan
             id="tspan268"
             y="0"
             x="0">m</tspan></text>
<text
           id="text274"
           style="font-variant:normal;font-weight:normal;font-size:18px;font-family:'DejaVu Sans';-inkscape-font-specification:DejaVuSans;writing-mode:lr-tb;fill:#000000;fill-opacity:1;fill-rule:nonzero;stroke:none"
           transform="matrix(1,0,0,-1,54.65209,0.640625)"><tspan
             id="tspan272"
             y="0"
             x="0 15.082031 20.803711 32.255859 36.602539 47.679688">= 0.77</tspan></text>
<g
           transform="matrix(0.018,0,0,0.018,0,0.640625)"
           id="g276"><g
             id="g278"><g
               clip-path="url(#clipPath284)"
               id="g280"><path
                 id="path286"
                 style="fill:#000000;fill-opacity:1;fill-rule:nonzero;stroke:none"
                 d="m 188,449 c 26,33 66,64 122,94 21,11 61,17 121,17 66,0 114,-27 146,-79 31,-53 38,-122 22,-208 C 582,187 548,117 496,65 444,13 385,-13 319,-13 c -40,0 -73,8 -99,23 -26,15 -45,39 -57,72 L 106,-207 H 16 l 93,475 c 14,75 41,135 79,181 z M 506,273 c 12,66 9,118 -11,156 -20,37 -54,56 -101,56 -48,0 -89,-19 -123,-56 -35,-38 -59,-90 -71,-156 -13,-66 -10,-118 10,-156 20,-38 53,-56 101,-56 48,0 89,18 123,56 34,38 58,90 72,156 z" /></g></g></g><g
           transform="matrix(0.0126,0,0,0.0126,38.096133,7.53125)"
           id="g288"><g
             id="g290"><g
               clip-path="url(#clipPath296)"
               id="g292"><path
                 id="path298"
                 style="fill:#000000;fill-opacity:1;fill-rule:nonzero;stroke:none"
                 d="m 122,374 h 146 l 45,138 46,-138 H 504 L 386,288 432,149 313,235 194,149 240,288 Z" /></g></g></g></g><path
         id="path300"
         style="fill:none;stroke:#008000;stroke-width:1.5;stroke-linecap:square;stroke-linejoin:round;stroke-miterlimit:10;stroke-dasharray:none;stroke-opacity:1"
         d="m 400.6,162.94 h 18 18" /><g
         transform="translate(451,156.64)"
         id="g302"><text
           id="text306"
           style="font-variant:normal;font-weight:normal;font-size:18px;font-family:'DejaVu Sans';-inkscape-font-specification:DejaVuSans;writing-mode:lr-tb;fill:#000000;fill-opacity:1;fill-rule:nonzero;stroke:none"
           transform="matrix(1,0,0,-1,17.147461,0.640625)"><tspan
             id="tspan304"
             y="0"
             x="0 15.082031 26.525391 37.977539 43.699219 55.151367">= 0.50</tspan></text>
<g
           transform="matrix(0.018,0,0,0.018,0,0.640625)"
           id="g308"><g
             id="g310"><g
               clip-path="url(#clipPath316)"
               id="g312"><path
                 id="path318"
                 style="fill:#000000;fill-opacity:1;fill-rule:nonzero;stroke:none"
                 d="m 188,449 c 26,33 66,64 122,94 21,11 61,17 121,17 66,0 114,-27 146,-79 31,-53 38,-122 22,-208 C 582,187 548,117 496,65 444,13 385,-13 319,-13 c -40,0 -73,8 -99,23 -26,15 -45,39 -57,72 L 106,-207 H 16 l 93,475 c 14,75 41,135 79,181 z M 506,273 c 12,66 9,118 -11,156 -20,37 -54,56 -101,56 -48,0 -89,-19 -123,-56 -35,-38 -59,-90 -71,-156 -13,-66 -10,-118 10,-156 20,-38 53,-56 101,-56 48,0 89,18 123,56 34,38 58,90 72,156 z" /></g></g></g></g><path
         id="path320"
         style="fill:none;stroke:#008000;stroke-width:1.5;stroke-linecap:butt;stroke-linejoin:round;stroke-miterlimit:10;stroke-dasharray:5.55, 2.4;stroke-dashoffset:0;stroke-opacity:1"
         d="m 400.6,135.94 h 18 18" /><g
         transform="translate(451,129.64)"
         id="g322"><text
           id="text326"
           style="font-style:italic;font-variant:normal;font-size:18px;font-family:'DejaVu Sans';-inkscape-font-specification:DejaVuSans-Oblique;writing-mode:lr-tb;fill:#000000;fill-opacity:1;fill-rule:nonzero;stroke:none"
           transform="matrix(1,0,0,-1,17.270449,0.640625)"><tspan
             id="tspan324"
             y="0"
             x="0">m</tspan></text>
<text
           id="text330"
           style="font-variant:normal;font-weight:normal;font-size:18px;font-family:'DejaVu Sans';-inkscape-font-specification:DejaVuSans;writing-mode:lr-tb;fill:#000000;fill-opacity:1;fill-rule:nonzero;stroke:none"
           transform="matrix(1,0,0,-1,54.65209,0.640625)"><tspan
             id="tspan328"
             y="0"
             x="0 15.082031 20.803711 32.255859 37.477539 48.929688">= 3.87</tspan></text>
<g
           transform="matrix(0.018,0,0,0.018,0,0.640625)"
           id="g332"><g
             id="g334"><g
               clip-path="url(#clipPath340)"
               id="g336"><path
                 id="path342"
                 style="fill:#000000;fill-opacity:1;fill-rule:nonzero;stroke:none"
                 d="m 188,449 c 26,33 66,64 122,94 21,11 61,17 121,17 66,0 114,-27 146,-79 31,-53 38,-122 22,-208 C 582,187 548,117 496,65 444,13 385,-13 319,-13 c -40,0 -73,8 -99,23 -26,15 -45,39 -57,72 L 106,-207 H 16 l 93,475 c 14,75 41,135 79,181 z M 506,273 c 12,66 9,118 -11,156 -20,37 -54,56 -101,56 -48,0 -89,-19 -123,-56 -35,-38 -59,-90 -71,-156 -13,-66 -10,-118 10,-156 20,-38 53,-56 101,-56 48,0 89,18 123,56 34,38 58,90 72,156 z" /></g></g></g><g
           transform="matrix(0.0126,0,0,0.0126,38.096133,7.53125)"
           id="g344"><g
             id="g346"><g
               clip-path="url(#clipPath352)"
               id="g348"><path
                 id="path354"
                 style="fill:#000000;fill-opacity:1;fill-rule:nonzero;stroke:none"
                 d="m 122,374 h 146 l 45,138 46,-138 H 504 L 386,288 432,149 313,235 194,149 240,288 Z" /></g></g></g></g><path
         id="path356"
         style="fill:none;stroke:#0000ff;stroke-width:1.5;stroke-linecap:square;stroke-linejoin:round;stroke-miterlimit:10;stroke-dasharray:none;stroke-opacity:1"
         d="m 400.6,108.94 h 18 18" /><g
         transform="translate(451,102.64)"
         id="g358"><text
           id="text362"
           style="font-variant:normal;font-weight:normal;font-size:18px;font-family:'DejaVu Sans';-inkscape-font-specification:DejaVuSans;writing-mode:lr-tb;fill:#000000;fill-opacity:1;fill-rule:nonzero;stroke:none"
           transform="matrix(1,0,0,-1,17.147461,0.640625)"><tspan
             id="tspan360"
             y="0"
             x="0 15.082031 26.525391 37.977539 43.699219 55.151367">= 1.00</tspan></text>
<g
           transform="matrix(0.018,0,0,0.018,0,0.640625)"
           id="g364"><g
             id="g366"><g
               clip-path="url(#clipPath372)"
               id="g368"><path
                 id="path374"
                 style="fill:#000000;fill-opacity:1;fill-rule:nonzero;stroke:none"
                 d="m 188,449 c 26,33 66,64 122,94 21,11 61,17 121,17 66,0 114,-27 146,-79 31,-53 38,-122 22,-208 C 582,187 548,117 496,65 444,13 385,-13 319,-13 c -40,0 -73,8 -99,23 -26,15 -45,39 -57,72 L 106,-207 H 16 l 93,475 c 14,75 41,135 79,181 z M 506,273 c 12,66 9,118 -11,156 -20,37 -54,56 -101,56 -48,0 -89,-19 -123,-56 -35,-38 -59,-90 -71,-156 -13,-66 -10,-118 10,-156 20,-38 53,-56 101,-56 48,0 89,18 123,56 34,38 58,90 72,156 z" /></g></g></g></g><path
         id="path376"
         style="fill:none;stroke:#0000ff;stroke-width:1.5;stroke-linecap:butt;stroke-linejoin:round;stroke-miterlimit:10;stroke-dasharray:5.55, 2.4;stroke-dashoffset:0;stroke-opacity:1"
         d="m 400.6,81.94 h 18 18" /><g
         transform="translate(451,75.64)"
         id="g378"><text
           id="text382"
           style="font-style:italic;font-variant:normal;font-size:18px;font-family:'DejaVu Sans';-inkscape-font-specification:DejaVuSans-Oblique;writing-mode:lr-tb;fill:#000000;fill-opacity:1;fill-rule:nonzero;stroke:none"
           transform="matrix(1,0,0,-1,17.270449,0.65625)"><tspan
             id="tspan380"
             y="0"
             x="0">m</tspan></text>
<text
           id="text386"
           style="font-variant:normal;font-weight:normal;font-size:18px;font-family:'DejaVu Sans';-inkscape-font-specification:DejaVuSans;writing-mode:lr-tb;fill:#000000;fill-opacity:1;fill-rule:nonzero;stroke:none"
           transform="matrix(1,0,0,-1,54.65209,0.65625)"><tspan
             id="tspan384"
             y="0"
             x="0 15.082031 20.803711 32.255859 36.602539 48.054688">= 7.75</tspan></text>
<g
           transform="matrix(0.018,0,0,0.018,0,0.65625)"
           id="g388"><g
             id="g390"><g
               clip-path="url(#clipPath396)"
               id="g392"><path
                 id="path398"
                 style="fill:#000000;fill-opacity:1;fill-rule:nonzero;stroke:none"
                 d="m 188,449 c 26,33 66,64 122,94 21,11 61,17 121,17 66,0 114,-27 146,-79 31,-53 38,-122 22,-208 C 582,187 548,117 496,65 444,13 385,-13 319,-13 c -40,0 -73,8 -99,23 -26,15 -45,39 -57,72 L 106,-207 H 16 l 93,475 c 14,75 41,135 79,181 z M 506,273 c 12,66 9,118 -11,156 -20,37 -54,56 -101,56 -48,0 -89,-19 -123,-56 -35,-38 -59,-90 -71,-156 -13,-66 -10,-118 10,-156 20,-38 53,-56 101,-56 48,0 89,18 123,56 34,38 58,90 72,156 z" /></g></g></g><g
           transform="matrix(0.0126,0,0,0.0126,38.096133,7.546875)"
           id="g400"><g
             id="g402"><g
               clip-path="url(#clipPath408)"
               id="g404"><path
                 id="path410"
                 style="fill:#000000;fill-opacity:1;fill-rule:nonzero;stroke:none"
                 d="m 122,374 h 146 l 45,138 46,-138 H 504 L 386,288 432,149 313,235 194,149 240,288 Z" /></g></g></g></g></g></g></svg>