<?xml version="1.0" encoding="UTF-8" standalone="no"?>
<svg
   xmlns:dc="http://purl.org/dc/elements/1.1/"
   xmlns:cc="http://creativecommons.org/ns#"
   xmlns:rdf="http://www.w3.org/1999/02/22-rdf-syntax-ns#"
   xmlns:svg="http://www.w3.org/2000/svg"
   xmlns="http://www.w3.org/2000/svg"
   viewBox="0 0 864 672"
   height="672"
   width="864"
   xml:space="preserve"
   id="svg2"
   version="1.1"><metadata
     id="metadata8"><rdf:RDF><cc:Work
         rdf:about=""><dc:format>image/svg+xml</dc:format><dc:type
           rdf:resource="http://purl.org/dc/dcmitype/StillImage" /></cc:Work></rdf:RDF></metadata><defs
     id="defs6"><clipPath
       id="clipPath36"
       clipPathUnits="userSpaceOnUse"><path
         id="path34"
         d="M -1021,-463 H 1794 V 1233 H -1021 Z" /></clipPath><clipPath
       id="clipPath60"
       clipPathUnits="userSpaceOnUse"><path
         id="path58"
         d="M -1021,-463 H 1794 V 1233 H -1021 Z" /></clipPath><clipPath
       id="clipPath178"
       clipPathUnits="userSpaceOnUse"><path
         id="path176"
         d="M 81,55.44 H 583.2 V 443.52 H 81 Z" /></clipPath><clipPath
       id="clipPath188"
       clipPathUnits="userSpaceOnUse"><path
         id="path186"
         d="M 81,55.44 H 583.2 V 443.52 H 81 Z" /></clipPath><clipPath
       id="clipPath198"
       clipPathUnits="userSpaceOnUse"><path
         id="path196"
         d="M 81,55.44 H 583.2 V 443.52 H 81 Z" /></clipPath><clipPath
       id="clipPath208"
       clipPathUnits="userSpaceOnUse"><path
         id="path206"
         d="M 81,55.44 H 583.2 V 443.52 H 81 Z" /></clipPath><clipPath
       id="clipPath218"
       clipPathUnits="userSpaceOnUse"><path
         id="path216"
         d="M 81,55.44 H 583.2 V 443.52 H 81 Z" /></clipPath><clipPath
       id="clipPath228"
       clipPathUnits="userSpaceOnUse"><path
         id="path226"
         d="M 81,55.44 H 583.2 V 443.52 H 81 Z" /></clipPath><clipPath
       id="clipPath260"
       clipPathUnits="userSpaceOnUse"><path
         id="path258"
         d="M -1016,-351 H 1660 V 1068 H -1016 Z" /></clipPath><clipPath
       id="clipPath284"
       clipPathUnits="userSpaceOnUse"><path
         id="path282"
         d="M -1021,-463 H 1794 V 1233 H -1021 Z" /></clipPath><clipPath
       id="clipPath296"
       clipPathUnits="userSpaceOnUse"><path
         id="path294"
         d="M -1016,-351 H 1660 V 1068 H -1016 Z" /></clipPath><clipPath
       id="clipPath316"
       clipPathUnits="userSpaceOnUse"><path
         id="path314"
         d="M -1016,-351 H 1660 V 1068 H -1016 Z" /></clipPath><clipPath
       id="clipPath340"
       clipPathUnits="userSpaceOnUse"><path
         id="path338"
         d="M -1021,-463 H 1794 V 1233 H -1021 Z" /></clipPath><clipPath
       id="clipPath352"
       clipPathUnits="userSpaceOnUse"><path
         id="path350"
         d="M -1016,-351 H 1660 V 1068 H -1016 Z" /></clipPath><clipPath
       id="clipPath372"
       clipPathUnits="userSpaceOnUse"><path
         id="path370"
         d="M -1016,-351 H 1660 V 1068 H -1016 Z" /></clipPath><clipPath
       id="clipPath396"
       clipPathUnits="userSpaceOnUse"><path
         id="path394"
         d="M -1021,-463 H 1794 V 1233 H -1021 Z" /></clipPath><clipPath
       id="clipPath408"
       clipPathUnits="userSpaceOnUse"><path
         id="path406"
         d="M -1016,-351 H 1660 V 1068 H -1016 Z" /></clipPath></defs><g
     transform="matrix(1.3333333,0,0,-1.3333333,0,672)"
     id="g10"><path
       id="path12"
       style="fill:#ffffff;fill-opacity:1;fill-rule:nonzero;stroke:none"
       d="M 0,0 H 648 V 504 H 0 Z" /><path
       id="path14"
       style="fill:#ffffff;fill-opacity:1;fill-rule:nonzero;stroke:none"
       d="M 81,55.44 H 583.2 V 443.52 H 81 Z" /><path
       id="path16"
       style="fill:#000000;fill-opacity:1;fill-rule:nonzero;stroke:#000000;stroke-width:0.80000001;stroke-linecap:butt;stroke-linejoin:round;stroke-miterlimit:10;stroke-dasharray:none;stroke-opacity:1"
       d="m 103.82727,55.44 v -3.5" /><g
       transform="translate(82.327273,34.19)"
       id="g18"><text
         id="text22"
         style="font-variant:normal;font-weight:normal;font-size:18px;font-family:'DejaVu Sans';-inkscape-font-specification:DejaVuSans;writing-mode:lr-tb;fill:#000000;fill-opacity:1;fill-rule:nonzero;stroke:none"
         transform="matrix(1,0,0,-1,0,0.7578125)"><tspan
           id="tspan20"
           y="0"
           x="0 11.452148">10</tspan></text>
<text
         id="text26"
         style="font-variant:normal;font-weight:normal;font-size:12.60000038px;font-family:'DejaVu Sans';-inkscape-font-specification:DejaVuSans;writing-mode:lr-tb;fill:#000000;fill-opacity:1;fill-rule:nonzero;stroke:none"
         transform="matrix(1,0,0,-1,33.633984,7.6484375)"><tspan
           id="tspan24"
           y="0"
           x="0">2</tspan></text>
<g
         transform="matrix(0.0126,0,0,0.0126,23.076562,7.6484375)"
         id="g28"><g
           id="g30"><g
             clip-path="url(#clipPath36)"
             id="g32"><path
               id="path38"
               style="fill:#000000;fill-opacity:1;fill-rule:nonzero;stroke:none"
               d="M 106,355 H 732 V 272 H 106 Z" /></g></g></g></g><path
       id="path40"
       style="fill:#000000;fill-opacity:1;fill-rule:nonzero;stroke:#000000;stroke-width:0.80000001;stroke-linecap:butt;stroke-linejoin:round;stroke-miterlimit:10;stroke-dasharray:none;stroke-opacity:1"
       d="m 332.1,55.44 v -3.5" /><g
       transform="translate(310.6,34.19)"
       id="g42"><text
         id="text46"
         style="font-variant:normal;font-weight:normal;font-size:18px;font-family:'DejaVu Sans';-inkscape-font-specification:DejaVuSans;writing-mode:lr-tb;fill:#000000;fill-opacity:1;fill-rule:nonzero;stroke:none"
         transform="matrix(1,0,0,-1,0,0.921875)"><tspan
           id="tspan44"
           y="0"
           x="0 11.452148">10</tspan></text>
<text
         id="text50"
         style="font-variant:normal;font-weight:normal;font-size:12.60000038px;font-family:'DejaVu Sans';-inkscape-font-specification:DejaVuSans;writing-mode:lr-tb;fill:#000000;fill-opacity:1;fill-rule:nonzero;stroke:none"
         transform="matrix(1,0,0,-1,33.633984,7.8125)"><tspan
           id="tspan48"
           y="0"
           x="0">1</tspan></text>
<g
         transform="matrix(0.0126,0,0,0.0126,23.076562,7.8125)"
         id="g52"><g
           id="g54"><g
             clip-path="url(#clipPath60)"
             id="g56"><path
               id="path62"
               style="fill:#000000;fill-opacity:1;fill-rule:nonzero;stroke:none"
               d="M 106,355 H 732 V 272 H 106 Z" /></g></g></g></g><path
       id="path64"
       style="fill:#000000;fill-opacity:1;fill-rule:nonzero;stroke:#000000;stroke-width:0.80000001;stroke-linecap:butt;stroke-linejoin:round;stroke-miterlimit:10;stroke-dasharray:none;stroke-opacity:1"
       d="m 560.37273,55.44 v -3.5" /><g
       transform="translate(544.37273,34.19)"
       id="g66"><text
         id="text70"
         style="font-variant:normal;font-weight:normal;font-size:18px;font-family:'DejaVu Sans';-inkscape-font-specification:DejaVuSans;writing-mode:lr-tb;fill:#000000;fill-opacity:1;fill-rule:nonzero;stroke:none"
         transform="matrix(1,0,0,-1,0,0.7578125)"><tspan
           id="tspan68"
           y="0"
           x="0 11.452148">10</tspan></text>
<text
         id="text74"
         style="font-variant:normal;font-weight:normal;font-size:12.60000038px;font-family:'DejaVu Sans';-inkscape-font-specification:DejaVuSans;writing-mode:lr-tb;fill:#000000;fill-opacity:1;fill-rule:nonzero;stroke:none"
         transform="matrix(1,0,0,-1,23.076563,7.6484375)"><tspan
           id="tspan72"
           y="0"
           x="0">0</tspan></text>
</g><path
       id="path76"
       style="fill:#000000;fill-opacity:1;fill-rule:nonzero;stroke:#000000;stroke-width:0.60000002;stroke-linecap:butt;stroke-linejoin:round;stroke-miterlimit:10;stroke-dasharray:none;stroke-opacity:1"
       d="m 81.70536,55.44 v -2" /><path
       id="path78"
       style="fill:#000000;fill-opacity:1;fill-rule:nonzero;stroke:#000000;stroke-width:0.60000002;stroke-linecap:butt;stroke-linejoin:round;stroke-miterlimit:10;stroke-dasharray:none;stroke-opacity:1"
       d="m 93.382086,55.44 v -2" /><path
       id="path80"
       style="fill:#000000;fill-opacity:1;fill-rule:nonzero;stroke:#000000;stroke-width:0.60000002;stroke-linecap:butt;stroke-linejoin:round;stroke-miterlimit:10;stroke-dasharray:none;stroke-opacity:1"
       d="m 172.54421,55.44 v -2" /><path
       id="path82"
       style="fill:#000000;fill-opacity:1;fill-rule:nonzero;stroke:#000000;stroke-width:0.60000002;stroke-linecap:butt;stroke-linejoin:round;stroke-miterlimit:10;stroke-dasharray:none;stroke-opacity:1"
       d="m 212.74104,55.44 v -2" /><path
       id="path84"
       style="fill:#000000;fill-opacity:1;fill-rule:nonzero;stroke:#000000;stroke-width:0.60000002;stroke-linecap:butt;stroke-linejoin:round;stroke-miterlimit:10;stroke-dasharray:none;stroke-opacity:1"
       d="m 241.26115,55.44 v -2" /><path
       id="path86"
       style="fill:#000000;fill-opacity:1;fill-rule:nonzero;stroke:#000000;stroke-width:0.60000002;stroke-linecap:butt;stroke-linejoin:round;stroke-miterlimit:10;stroke-dasharray:none;stroke-opacity:1"
       d="m 263.38306,55.44 v -2" /><path
       id="path88"
       style="fill:#000000;fill-opacity:1;fill-rule:nonzero;stroke:#000000;stroke-width:0.60000002;stroke-linecap:butt;stroke-linejoin:round;stroke-miterlimit:10;stroke-dasharray:none;stroke-opacity:1"
       d="m 281.45798,55.44 v -2" /><path
       id="path90"
       style="fill:#000000;fill-opacity:1;fill-rule:nonzero;stroke:#000000;stroke-width:0.60000002;stroke-linecap:butt;stroke-linejoin:round;stroke-miterlimit:10;stroke-dasharray:none;stroke-opacity:1"
       d="m 296.74011,55.44 v -2" /><path
       id="path92"
       style="fill:#000000;fill-opacity:1;fill-rule:nonzero;stroke:#000000;stroke-width:0.60000002;stroke-linecap:butt;stroke-linejoin:round;stroke-miterlimit:10;stroke-dasharray:none;stroke-opacity:1"
       d="m 309.97809,55.44 v -2" /><path
       id="path94"
       style="fill:#000000;fill-opacity:1;fill-rule:nonzero;stroke:#000000;stroke-width:0.60000002;stroke-linecap:butt;stroke-linejoin:round;stroke-miterlimit:10;stroke-dasharray:none;stroke-opacity:1"
       d="m 321.65481,55.44 v -2" /><path
       id="path96"
       style="fill:#000000;fill-opacity:1;fill-rule:nonzero;stroke:#000000;stroke-width:0.60000002;stroke-linecap:butt;stroke-linejoin:round;stroke-miterlimit:10;stroke-dasharray:none;stroke-opacity:1"
       d="m 400.81694,55.44 v -2" /><path
       id="path98"
       style="fill:#000000;fill-opacity:1;fill-rule:nonzero;stroke:#000000;stroke-width:0.60000002;stroke-linecap:butt;stroke-linejoin:round;stroke-miterlimit:10;stroke-dasharray:none;stroke-opacity:1"
       d="m 441.01377,55.44 v -2" /><path
       id="path100"
       style="fill:#000000;fill-opacity:1;fill-rule:nonzero;stroke:#000000;stroke-width:0.60000002;stroke-linecap:butt;stroke-linejoin:round;stroke-miterlimit:10;stroke-dasharray:none;stroke-opacity:1"
       d="m 469.53388,55.44 v -2" /><path
       id="path102"
       style="fill:#000000;fill-opacity:1;fill-rule:nonzero;stroke:#000000;stroke-width:0.60000002;stroke-linecap:butt;stroke-linejoin:round;stroke-miterlimit:10;stroke-dasharray:none;stroke-opacity:1"
       d="m 491.65579,55.44 v -2" /><path
       id="path104"
       style="fill:#000000;fill-opacity:1;fill-rule:nonzero;stroke:#000000;stroke-width:0.60000002;stroke-linecap:butt;stroke-linejoin:round;stroke-miterlimit:10;stroke-dasharray:none;stroke-opacity:1"
       d="m 509.73071,55.44 v -2" /><path
       id="path106"
       style="fill:#000000;fill-opacity:1;fill-rule:nonzero;stroke:#000000;stroke-width:0.60000002;stroke-linecap:butt;stroke-linejoin:round;stroke-miterlimit:10;stroke-dasharray:none;stroke-opacity:1"
       d="m 525.01283,55.44 v -2" /><path
       id="path108"
       style="fill:#000000;fill-opacity:1;fill-rule:nonzero;stroke:#000000;stroke-width:0.60000002;stroke-linecap:butt;stroke-linejoin:round;stroke-miterlimit:10;stroke-dasharray:none;stroke-opacity:1"
       d="m 538.25081,55.44 v -2" /><path
       id="path110"
       style="fill:#000000;fill-opacity:1;fill-rule:nonzero;stroke:#000000;stroke-width:0.60000002;stroke-linecap:butt;stroke-linejoin:round;stroke-miterlimit:10;stroke-dasharray:none;stroke-opacity:1"
       d="m 549.92754,55.44 v -2" /><g
       transform="translate(224.79531,12.768125)"
       id="g112"><text
         id="text116"
         style="font-variant:normal;font-weight:normal;font-size:18px;font-family:'DejaVu Sans';-inkscape-font-specification:DejaVuSans;writing-mode:lr-tb;fill:#000000;fill-opacity:1;fill-rule:nonzero;stroke:none"
         transform="scale(1,-1)"><tspan
           id="tspan114"
           y="0"
           x="0 8.7093754 19.743376 24.747375 34.125374 45.195374 50.919376 61.132751 72.14875 81.526749 86.530746 93.586746 98.590752 109.24675 120.31675 126.04075 138.16013 149.19412 156.25012 167.32013 173.04413 180.06412 185.06813 196.08412 207.51413">False Positive Rate (log)</tspan></text>
</g><path
       id="path118"
       style="fill:#000000;fill-opacity:1;fill-rule:nonzero;stroke:#000000;stroke-width:0.80000001;stroke-linecap:butt;stroke-linejoin:round;stroke-miterlimit:10;stroke-dasharray:none;stroke-opacity:1"
       d="M 81,73.08 H 77.5" /><g
       transform="translate(45.375,66.244063)"
       id="g120"><text
         id="text124"
         style="font-variant:normal;font-weight:normal;font-size:18px;font-family:'DejaVu Sans';-inkscape-font-specification:DejaVuSans;writing-mode:lr-tb;fill:#000000;fill-opacity:1;fill-rule:nonzero;stroke:none"
         transform="scale(1,-1)"><tspan
           id="tspan122"
           y="0"
           x="0 11.448 17.172001">0.0</tspan></text>
</g><path
       id="path126"
       style="fill:#000000;fill-opacity:1;fill-rule:nonzero;stroke:#000000;stroke-width:0.80000001;stroke-linecap:butt;stroke-linejoin:round;stroke-miterlimit:10;stroke-dasharray:none;stroke-opacity:1"
       d="M 81,143.64 H 77.5" /><g
       transform="translate(45.375,136.80406)"
       id="g128"><text
         id="text132"
         style="font-variant:normal;font-weight:normal;font-size:18px;font-family:'DejaVu Sans';-inkscape-font-specification:DejaVuSans;writing-mode:lr-tb;fill:#000000;fill-opacity:1;fill-rule:nonzero;stroke:none"
         transform="scale(1,-1)"><tspan
           id="tspan130"
           y="0"
           x="0 11.448 17.172001">0.2</tspan></text>
</g><path
       id="path134"
       style="fill:#000000;fill-opacity:1;fill-rule:nonzero;stroke:#000000;stroke-width:0.80000001;stroke-linecap:butt;stroke-linejoin:round;stroke-miterlimit:10;stroke-dasharray:none;stroke-opacity:1"
       d="M 81,214.2 H 77.5" /><g
       transform="translate(45.375,207.36406)"
       id="g136"><text
         id="text140"
         style="font-variant:normal;font-weight:normal;font-size:18px;font-family:'DejaVu Sans';-inkscape-font-specification:DejaVuSans;writing-mode:lr-tb;fill:#000000;fill-opacity:1;fill-rule:nonzero;stroke:none"
         transform="scale(1,-1)"><tspan
           id="tspan138"
           y="0"
           x="0 11.448 17.172001">0.4</tspan></text>
</g><path
       id="path142"
       style="fill:#000000;fill-opacity:1;fill-rule:nonzero;stroke:#000000;stroke-width:0.80000001;stroke-linecap:butt;stroke-linejoin:round;stroke-miterlimit:10;stroke-dasharray:none;stroke-opacity:1"
       d="M 81,284.76 H 77.5" /><g
       transform="translate(45.375,277.92406)"
       id="g144"><text
         id="text148"
         style="font-variant:normal;font-weight:normal;font-size:18px;font-family:'DejaVu Sans';-inkscape-font-specification:DejaVuSans;writing-mode:lr-tb;fill:#000000;fill-opacity:1;fill-rule:nonzero;stroke:none"
         transform="scale(1,-1)"><tspan
           id="tspan146"
           y="0"
           x="0 11.448 17.172001">0.6</tspan></text>
</g><path
       id="path150"
       style="fill:#000000;fill-opacity:1;fill-rule:nonzero;stroke:#000000;stroke-width:0.80000001;stroke-linecap:butt;stroke-linejoin:round;stroke-miterlimit:10;stroke-dasharray:none;stroke-opacity:1"
       d="M 81,355.32 H 77.5" /><g
       transform="translate(45.375,348.48406)"
       id="g152"><text
         id="text156"
         style="font-variant:normal;font-weight:normal;font-size:18px;font-family:'DejaVu Sans';-inkscape-font-specification:DejaVuSans;writing-mode:lr-tb;fill:#000000;fill-opacity:1;fill-rule:nonzero;stroke:none"
         transform="scale(1,-1)"><tspan
           id="tspan154"
           y="0"
           x="0 11.448 17.172001">0.8</tspan></text>
</g><path
       id="path158"
       style="fill:#000000;fill-opacity:1;fill-rule:nonzero;stroke:#000000;stroke-width:0.80000001;stroke-linecap:butt;stroke-linejoin:round;stroke-miterlimit:10;stroke-dasharray:none;stroke-opacity:1"
       d="M 81,425.88 H 77.5" /><g
       transform="translate(45.375,419.04406)"
       id="g160"><text
         id="text164"
         style="font-variant:normal;font-weight:normal;font-size:18px;font-family:'DejaVu Sans';-inkscape-font-specification:DejaVuSans;writing-mode:lr-tb;fill:#000000;fill-opacity:1;fill-rule:nonzero;stroke:none"
         transform="scale(1,-1)"><tspan
           id="tspan162"
           y="0"
           x="0 11.448 17.172001">1.0</tspan></text>
</g><g
       transform="rotate(90,-92.314219,129.93922)"
       id="g166"><text
         id="text170"
         style="font-variant:normal;font-weight:normal;font-size:18px;font-family:'DejaVu Sans';-inkscape-font-specification:DejaVuSans;writing-mode:lr-tb;fill:#000000;fill-opacity:1;fill-rule:nonzero;stroke:none"
         transform="scale(1,-1)"><tspan
           id="tspan168"
           y="0"
           x="0 10.213375 21.229376 35.953377 47.023376">Power</tspan></text>
</g><g
       id="g172"><g
         clip-path="url(#clipPath178)"
         id="g174"><path
           id="path180"
           style="fill:none;stroke:#ff0000;stroke-width:1.5;stroke-linecap:square;stroke-linejoin:round;stroke-miterlimit:10;stroke-dasharray:none;stroke-opacity:1"
           d="M -1,277.704 H 103.82727 V 302.4 h 68.71694 v 17.64 h 40.19683 v 14.112 h 50.64202 v 7.056 h 18.07492 v 7.056 h 15.28213 v 24.696 h 13.23798 v 3.528 h 11.67672 v 7.056 H 332.1 v 10.584 h 26.01016 v 7.056 h 14.18667 v 3.528 h 6.39819 v 3.528 h 11.67673 v 3.528 h 32.5671 v 7.056 h 24.47311 v 3.528 h 46.20701 v 3.528 h 66.75376 v 0" /></g></g><g
       id="g182"><g
         clip-path="url(#clipPath188)"
         id="g184"><path
           id="path190"
           style="fill:none;stroke:#ff0000;stroke-width:1.5;stroke-linecap:butt;stroke-linejoin:round;stroke-miterlimit:10;stroke-dasharray:5.55, 2.4;stroke-dashoffset:0;stroke-opacity:1"
           d="m -1,304.16307 104.82727,0.10638 v 0 l 68.71694,33.16099 v 0 l 40.19683,18.24455 v 0 l 28.52011,12.0993 22.12191,8.77975 v 0 l 18.07492,6.725 v 0 l 15.28213,5.34211 v 0 l 13.23798,4.35664 v 0 l 11.67672,3.62454 v 0 L 332.1,399.6654 v 0 l 9.44882,2.62153 16.56134,4.24513 v 0 l 14.18667,3.27646 v 0 l 12.40837,2.59106 11.02664,2.08758 14.53392,2.44541 12.67309,1.85335 v 0 l 11.23513,1.43178 13.23798,1.44176 v 0 l 11.67673,1.06192 12.89315,0.95837 13.53977,0.7835 15.583,0.6496 16.56134,0.43862 18.07492,0.2459 23.63549,0.0826 0.99637,8e-5 v 0" /></g></g><g
       id="g192"><g
         clip-path="url(#clipPath198)"
         id="g194"><path
           id="path200"
           style="fill:none;stroke:#008000;stroke-width:1.5;stroke-linecap:square;stroke-linejoin:round;stroke-miterlimit:10;stroke-dasharray:none;stroke-opacity:1"
           d="m -1,221.256 h 104.82727 v 10.584 h 68.71694 v 14.112 h 40.19683 v 31.752 h 83.99907 v 42.336 h 24.9147 v 7.056 H 332.1 v 3.528 h 9.44882 v 3.528 h 16.56134 v 7.056 h 7.34688 v 3.528 h 13.23798 v 3.528 h 6.01018 v 10.584 h 5.66655 v 3.528 h 5.36009 v 3.528 h 5.0851 v 3.528 h 4.83694 v 3.528 h 17.28497 v 7.056 h 7.62973 v 3.528 h 3.6054 v 3.528 h 6.83979 v 14.112 h 15.28213 v 7.056 h 2.79279 v 3.528 h 26.43292 v 3.528 h 45.00028 v 3.528 h 10.17689 v 3.528 h 5.86784 v 3.528 h 13.80611 v 0" /></g></g><g
       id="g202"><g
         clip-path="url(#clipPath208)"
         id="g204"><path
           id="path210"
           style="fill:none;stroke:#008000;stroke-width:1.5;stroke-linecap:butt;stroke-linejoin:round;stroke-miterlimit:10;stroke-dasharray:5.55, 2.4;stroke-dashoffset:0;stroke-opacity:1"
           d="m -1,195.70043 104.82727,0.0564 v 0 l 68.71694,37.0312 v 0 l 40.19683,24.29988 v 0 l 28.52011,18.1701 22.12191,14.47633 78.16576,51.69757 v 0 l 16.56134,10.56951 v 0 l 14.18667,8.79565 12.40837,7.4466 v 0 l 11.02664,6.38826 v 0 l 9.92204,5.53772 v 0 l 9.01872,4.84091 12.1545,6.2032 10.82575,5.18472 9.75911,4.37475 8.88394,3.71846 v 0 l 8.15288,3.17853 7.53306,2.72871 9.22876,3.05929 8.44234,2.51541 7.77949,2.07135 7.21319,1.7049 8.33579,1.70809 7.68894,1.32456 7.13528,1.01381 7.93524,0.8862 7.34688,0.59819 7.93524,0.41325 7.34689,0.17425 2.00285,0.0117 v 0" /></g></g><g
       id="g212"><g
         clip-path="url(#clipPath218)"
         id="g214"><path
           id="path220"
           style="fill:none;stroke:#0000ff;stroke-width:1.5;stroke-linecap:square;stroke-linejoin:round;stroke-miterlimit:10;stroke-dasharray:none;stroke-opacity:1"
           d="m -1,136.584 h 104.82727 v 7.056 h 108.91377 v 3.528 h 28.52011 v 17.64 h 22.12191 v 63.504 h 18.07492 v 28.224 h 15.28213 v 35.28 h 13.23798 v 3.528 h 68.71693 v 7.056 h 22.12192 v 7.056 h 4.83694 v 3.528 h 17.28497 v 7.056 h 3.88825 v 3.528 h 14.18667 v 10.584 h 6.39819 v 3.528 h 3.05063 v 3.528 h 2.95955 v 14.112 h 2.87376 v 3.528 h 13.23798 v 3.528 h 4.83693 v 3.528 h 2.33276 v 3.528 h 10.90522 v 3.528 h 2.04415 v 10.584 h 5.8911 v 3.528 h 3.74148 v 7.056 h 5.3601 v 3.528 h 5.08509 v 3.528 h 4.83694 v 7.056 h 15.95424 v 3.528 h 1.33073 v 3.528 h 3.88825 v 3.528 h 11.95877 v 3.528 h 7.58799 v 3.528 h 5.0851 v 0" /></g></g><g
       id="g222"><g
         clip-path="url(#clipPath228)"
         id="g224"><path
           id="path230"
           style="fill:none;stroke:#0000ff;stroke-width:1.5;stroke-linecap:butt;stroke-linejoin:round;stroke-miterlimit:10;stroke-dasharray:5.55, 2.4;stroke-dashoffset:0;stroke-opacity:1"
           d="m -1,119.81924 104.82727,0.0215 v 0 l 68.71694,23.77596 40.19683,18.29095 28.52011,15.25343 v 0 l 22.12191,13.23242 v 0 l 18.07492,11.75616 v 0 l 15.28213,10.61402 v 0 l 13.23798,9.69505 v 0 l 11.67672,8.93425 10.44519,8.29056 9.44882,7.73652 8.6261,7.25303 15.28212,13.27203 13.23798,11.89858 v 0 l 11.67673,10.76787 15.28213,14.41121 v 0 l 21.17322,20.36849 v 0 l 29.4688,28.43284 v 0 l 13.23798,12.47005 v 0 l 11.67672,10.65652 8.44234,7.42284 v 0 l 7.77949,6.57258 7.21319,5.818 v 0 l 6.72376,5.14204 6.29657,4.53132 5.92042,3.97503 5.58669,3.46425 5.2886,2.99129 5.02069,2.54921 4.77864,2.13116 4.55886,1.72939 3.28663,1.03724 3.18115,0.80994 v 0 l 3.08225,0.56235 2.00285,0.19266 v 0" /></g></g><g
       id="g232"><path
         id="path234"
         style="fill:none;stroke:#000000;stroke-width:0.80000001;stroke-linecap:square;stroke-linejoin:miter;stroke-miterlimit:10;stroke-dasharray:none;stroke-opacity:1"
         d="M 81,55.44 V 443.52" /><path
         id="path236"
         style="fill:none;stroke:#000000;stroke-width:0.80000001;stroke-linecap:square;stroke-linejoin:miter;stroke-miterlimit:10;stroke-dasharray:none;stroke-opacity:1"
         d="M 583.2,55.44 V 443.52" /><path
         id="path238"
         style="fill:none;stroke:#000000;stroke-width:0.80000001;stroke-linecap:square;stroke-linejoin:miter;stroke-miterlimit:10;stroke-dasharray:none;stroke-opacity:1"
         d="M 81,55.44 H 583.2" /><path
         id="path240"
         style="fill:none;stroke:#000000;stroke-width:0.80000001;stroke-linecap:square;stroke-linejoin:miter;stroke-miterlimit:10;stroke-dasharray:none;stroke-opacity:1"
         d="M 81,443.52 H 583.2" /><path
         id="path242"
         style="fill:#ffffff;fill-opacity:0.8;fill-rule:nonzero;stroke:#cccccc;stroke-width:1;stroke-linecap:butt;stroke-linejoin:miter;stroke-miterlimit:10;stroke-dasharray:none;stroke-opacity:0.8"
         d="m 409,64.44 h 161.6 c 2.4,0 3.6,1.2 3.6,3.6 v 172.2 c 0,2.4 -1.2,3.6 -3.6,3.6 H 409 c -2.4,0 -3.6,-1.2 -3.6,-3.6 V 68.04 c 0,-2.4 1.2,-3.6 3.6,-3.6 z" /><path
         id="path244"
         style="fill:none;stroke:#ff0000;stroke-width:1.5;stroke-linecap:square;stroke-linejoin:round;stroke-miterlimit:10;stroke-dasharray:none;stroke-opacity:1"
         d="m 412.6,228.94 h 18 18" /><g
         transform="translate(463,222.64)"
         id="g246"><text
           id="text250"
           style="font-variant:normal;font-weight:normal;font-size:18px;font-family:'DejaVu Sans';-inkscape-font-specification:DejaVuSans;writing-mode:lr-tb;fill:#000000;fill-opacity:1;fill-rule:nonzero;stroke:none"
           transform="matrix(1,0,0,-1,16.374023,0.640625)"><tspan
             id="tspan248"
             y="0"
             x="0 15.082031 26.525391 37.977539 43.699219 55.151367">= 0.10</tspan></text>
<g
           transform="matrix(0.018,0,0,0.018,0,0.640625)"
           id="g252"><g
             id="g254"><g
               clip-path="url(#clipPath260)"
               id="g256"><path
                 id="path262"
                 style="fill:#000000;fill-opacity:1;fill-rule:nonzero;stroke:none"
                 d="m 233,461 54,-338 253,424 h 95 L 308,0 268,-207 H 178 L 218,0 154,408 c -6,41 -25,62 -56,62 H 74 l 15,77 h 34 c 64,0 100,-29 110,-86 z" /></g></g></g></g><path
         id="path264"
         style="fill:none;stroke:#ff0000;stroke-width:1.5;stroke-linecap:butt;stroke-linejoin:round;stroke-miterlimit:10;stroke-dasharray:5.55, 2.4;stroke-dashoffset:0;stroke-opacity:1"
         d="m 412.6,201.94 h 18 18" /><g
         transform="translate(463,195.64)"
         id="g266"><text
           id="text270"
           style="font-style:italic;font-variant:normal;font-size:18px;font-family:'DejaVu Sans';-inkscape-font-specification:DejaVuSans-Oblique;writing-mode:lr-tb;fill:#000000;fill-opacity:1;fill-rule:nonzero;stroke:none"
           transform="matrix(1,0,0,-1,0,0.640625)"><tspan
             id="tspan268"
             y="0"
             x="0">m</tspan></text>
<text
           id="text274"
           style="font-variant:normal;font-weight:normal;font-size:18px;font-family:'DejaVu Sans';-inkscape-font-specification:DejaVuSans;writing-mode:lr-tb;fill:#000000;fill-opacity:1;fill-rule:nonzero;stroke:none"
           transform="matrix(1,0,0,-1,37.381641,0.640625)"><tspan
             id="tspan272"
             y="0"
             x="0 15.082031 26.525391 37.977539 43.699219 55.151367">= 7.43</tspan></text>
<g
           transform="matrix(0.0126,0,0,0.0126,20.825684,7.53125)"
           id="g276"><g
             id="g278"><g
               clip-path="url(#clipPath284)"
               id="g280"><path
                 id="path286"
                 style="fill:#000000;fill-opacity:1;fill-rule:nonzero;stroke:none"
                 d="m 122,374 h 146 l 45,138 46,-138 H 504 L 386,288 432,149 313,235 194,149 240,288 Z" /></g></g></g><g
           transform="matrix(0.0126,0,0,0.0126,17.53418,-4.28125)"
           id="g288"><g
             id="g290"><g
               clip-path="url(#clipPath296)"
               id="g292"><path
                 id="path298"
                 style="fill:#000000;fill-opacity:1;fill-rule:nonzero;stroke:none"
                 d="m 233,461 54,-338 253,424 h 95 L 308,0 268,-207 H 178 L 218,0 154,408 c -6,41 -25,62 -56,62 H 74 l 15,77 h 34 c 64,0 100,-29 110,-86 z" /></g></g></g></g><path
         id="path300"
         style="fill:none;stroke:#008000;stroke-width:1.5;stroke-linecap:square;stroke-linejoin:round;stroke-miterlimit:10;stroke-dasharray:none;stroke-opacity:1"
         d="m 412.6,170.94 h 18 18" /><g
         transform="translate(463,164.64)"
         id="g302"><text
           id="text306"
           style="font-variant:normal;font-weight:normal;font-size:18px;font-family:'DejaVu Sans';-inkscape-font-specification:DejaVuSans;writing-mode:lr-tb;fill:#000000;fill-opacity:1;fill-rule:nonzero;stroke:none"
           transform="matrix(1,0,0,-1,16.374023,0.640625)"><tspan
             id="tspan304"
             y="0"
             x="0 15.082031 26.525391 37.977539 43.699219 55.151367">= 0.50</tspan></text>
<g
           transform="matrix(0.018,0,0,0.018,0,0.640625)"
           id="g308"><g
             id="g310"><g
               clip-path="url(#clipPath316)"
               id="g312"><path
                 id="path318"
                 style="fill:#000000;fill-opacity:1;fill-rule:nonzero;stroke:none"
                 d="m 233,461 54,-338 253,424 h 95 L 308,0 268,-207 H 178 L 218,0 154,408 c -6,41 -25,62 -56,62 H 74 l 15,77 h 34 c 64,0 100,-29 110,-86 z" /></g></g></g></g><path
         id="path320"
         style="fill:none;stroke:#008000;stroke-width:1.5;stroke-linecap:butt;stroke-linejoin:round;stroke-miterlimit:10;stroke-dasharray:5.55, 2.4;stroke-dashoffset:0;stroke-opacity:1"
         d="m 412.6,143.94 h 18 18" /><g
         transform="translate(463,137.64)"
         id="g322"><text
           id="text326"
           style="font-style:italic;font-variant:normal;font-size:18px;font-family:'DejaVu Sans';-inkscape-font-specification:DejaVuSans-Oblique;writing-mode:lr-tb;fill:#000000;fill-opacity:1;fill-rule:nonzero;stroke:none"
           transform="matrix(1,0,0,-1,0,0.640625)"><tspan
             id="tspan324"
             y="0"
             x="0">m</tspan></text>
<text
           id="text330"
           style="font-variant:normal;font-weight:normal;font-size:18px;font-family:'DejaVu Sans';-inkscape-font-specification:DejaVuSans;writing-mode:lr-tb;fill:#000000;fill-opacity:1;fill-rule:nonzero;stroke:none"
           transform="matrix(1,0,0,-1,37.381641,0.640625)"><tspan
             id="tspan328"
             y="0"
             x="0 15.082031 26.525391 37.977539 42.324219 53.776367">= 3.74</tspan></text>
<g
           transform="matrix(0.0126,0,0,0.0126,20.825684,7.53125)"
           id="g332"><g
             id="g334"><g
               clip-path="url(#clipPath340)"
               id="g336"><path
                 id="path342"
                 style="fill:#000000;fill-opacity:1;fill-rule:nonzero;stroke:none"
                 d="m 122,374 h 146 l 45,138 46,-138 H 504 L 386,288 432,149 313,235 194,149 240,288 Z" /></g></g></g><g
           transform="matrix(0.0126,0,0,0.0126,17.53418,-4.28125)"
           id="g344"><g
             id="g346"><g
               clip-path="url(#clipPath352)"
               id="g348"><path
                 id="path354"
                 style="fill:#000000;fill-opacity:1;fill-rule:nonzero;stroke:none"
                 d="m 233,461 54,-338 253,424 h 95 L 308,0 268,-207 H 178 L 218,0 154,408 c -6,41 -25,62 -56,62 H 74 l 15,77 h 34 c 64,0 100,-29 110,-86 z" /></g></g></g></g><path
         id="path356"
         style="fill:none;stroke:#0000ff;stroke-width:1.5;stroke-linecap:square;stroke-linejoin:round;stroke-miterlimit:10;stroke-dasharray:none;stroke-opacity:1"
         d="m 412.6,112.94 h 18 18" /><g
         transform="translate(463,106.64)"
         id="g358"><text
           id="text362"
           style="font-variant:normal;font-weight:normal;font-size:18px;font-family:'DejaVu Sans';-inkscape-font-specification:DejaVuSans;writing-mode:lr-tb;fill:#000000;fill-opacity:1;fill-rule:nonzero;stroke:none"
           transform="matrix(1,0,0,-1,16.374023,0.640625)"><tspan
             id="tspan360"
             y="0"
             x="0 15.082031 26.525391 37.977539 43.699219 55.151367">= 1.00</tspan></text>
<g
           transform="matrix(0.018,0,0,0.018,0,0.640625)"
           id="g364"><g
             id="g366"><g
               clip-path="url(#clipPath372)"
               id="g368"><path
                 id="path374"
                 style="fill:#000000;fill-opacity:1;fill-rule:nonzero;stroke:none"
                 d="m 233,461 54,-338 253,424 h 95 L 308,0 268,-207 H 178 L 218,0 154,408 c -6,41 -25,62 -56,62 H 74 l 15,77 h 34 c 64,0 100,-29 110,-86 z" /></g></g></g></g><path
         id="path376"
         style="fill:none;stroke:#0000ff;stroke-width:1.5;stroke-linecap:butt;stroke-linejoin:round;stroke-miterlimit:10;stroke-dasharray:5.55, 2.4;stroke-dashoffset:0;stroke-opacity:1"
         d="m 412.6,85.94 h 18 18" /><g
         transform="translate(463,79.64)"
         id="g378"><text
           id="text382"
           style="font-style:italic;font-variant:normal;font-size:18px;font-family:'DejaVu Sans';-inkscape-font-specification:DejaVuSans-Oblique;writing-mode:lr-tb;fill:#000000;fill-opacity:1;fill-rule:nonzero;stroke:none"
           transform="matrix(1,0,0,-1,0,0.65625)"><tspan
             id="tspan380"
             y="0"
             x="0">m</tspan></text>
<text
           id="text386"
           style="font-variant:normal;font-weight:normal;font-size:18px;font-family:'DejaVu Sans';-inkscape-font-specification:DejaVuSans;writing-mode:lr-tb;fill:#000000;fill-opacity:1;fill-rule:nonzero;stroke:none"
           transform="matrix(1,0,0,-1,37.381641,0.65625)"><tspan
             id="tspan384"
             y="0"
             x="0 15.082031 26.525391 37.977539 43.699219 55.151367">= 1.47</tspan></text>
<g
           transform="matrix(0.0126,0,0,0.0126,20.825684,7.546875)"
           id="g388"><g
             id="g390"><g
               clip-path="url(#clipPath396)"
               id="g392"><path
                 id="path398"
                 style="fill:#000000;fill-opacity:1;fill-rule:nonzero;stroke:none"
                 d="m 122,374 h 146 l 45,138 46,-138 H 504 L 386,288 432,149 313,235 194,149 240,288 Z" /></g></g></g><g
           transform="matrix(0.0126,0,0,0.0126,17.53418,-4.265625)"
           id="g400"><g
             id="g402"><g
               clip-path="url(#clipPath408)"
               id="g404"><path
                 id="path410"
                 style="fill:#000000;fill-opacity:1;fill-rule:nonzero;stroke:none"
                 d="m 233,461 54,-338 253,424 h 95 L 308,0 268,-207 H 178 L 218,0 154,408 c -6,41 -25,62 -56,62 H 74 l 15,77 h 34 c 64,0 100,-29 110,-86 z" /></g></g></g></g></g></g></svg>